<?xml version="1.0" encoding="UTF-8"?>
<svg width="32px" height="32px" viewBox="0 0 32 32" version="1.1" xmlns="http://www.w3.org/2000/svg" xmlns:xlink="http://www.w3.org/1999/xlink">
    <!-- Generator: Sketch 46.2 (44496) - http://www.bohemiancoding.com/sketch -->
    <title>icon browse </title>
    <desc>Created with Sketch.</desc>
    <defs></defs>
    <g id="Page-1" stroke="none" stroke-width="1" fill="none" fill-rule="evenodd">
        <g id="icon-browse-" fill="#5A5A5A">
            <path d="M10.4994705,18 C9.6713731,18 9,17.3286269 9,16.4994705 C9,15.6713731 9.6713731,15 10.4994705,15 C11.3286269,15 12,15.6713731 12,16.4994705 C12,17.3286269 11.3286269,18 10.4994705,18 Z M16.4994705,18 C15.6713731,18 15,17.3286269 15,16.4994705 C15,15.6713731 15.6713731,15 16.4994705,15 C17.3286269,15 18,15.6713731 18,16.4994705 C18,17.3286269 17.3286269,18 16.4994705,18 Z M22.4994705,18 C21.6713731,18 21,17.3286269 21,16.4994705 C21,15.6713731 21.6713731,15 22.4994705,15 C23.3286269,15 24,15.6713731 24,16.4994705 C24,17.3286269 23.3286269,18 22.4994705,18 Z" id="Combined-Shape"></path>
        </g>
    </g>
</svg>