<?xml version="1.0" encoding="UTF-8"?>
<svg width="32px" height="32px" viewBox="0 0 32 32" version="1.1" xmlns="http://www.w3.org/2000/svg" xmlns:xlink="http://www.w3.org/1999/xlink">
    <!-- Generator: Sketch 46.2 (44496) - http://www.bohemiancoding.com/sketch -->
    <title>icon failed</title>
    <desc>Created with Sketch.</desc>
    <defs></defs>
    <g id="Page-1" stroke="none" stroke-width="1" fill="none" fill-rule="evenodd">
        <g id="icon-failed">
            <g id="Group" transform="translate(2.000000, 2.000000)"></g>
            <path d="M21.387734,19.9221169 C21.7925662,20.3269491 21.7925662,20.9829017 21.387734,21.387734 C21.1853178,21.5901501 20.9200353,21.6913581 20.6550981,21.6913581 C20.390161,21.6913581 20.1248784,21.5901501 19.9224623,21.3880794 L15.50005,16.9656671 L11.0776377,21.3873885 C10.8752216,21.5894592 10.609939,21.6906673 10.3450019,21.6906673 C10.0800647,21.6906673 9.81478216,21.5894592 9.61236604,21.3870431 C9.20753379,20.9825563 9.20753379,20.3262583 9.61236604,19.921426 L14.0344329,15.50005 L9.61236604,11.0779831 C9.20753379,10.6731509 9.20753379,10.0171983 9.61236604,9.61236604 C10.0171983,9.20753379 10.6728054,9.20787921 11.0776377,9.61236604 L15.50005,14.0344329 L19.9224623,9.61202062 C20.3272946,9.20753379 20.9829017,9.20753379 21.387734,9.61202062 C21.7925662,10.0165074 21.7925662,10.6728054 21.387734,11.0776377 L16.9653217,15.50005 L21.387734,19.9221169 Z M15.50005,2 C8.04450464,2 2,8.04450464 2,15.50005 C2,22.9555954 8.04450464,29.0001 15.50005,29.0001 C22.9555954,29.0001 29.0001,22.9555954 29.0001,15.50005 C29.0001,8.04450464 22.9555954,2 15.50005,2 L15.50005,2 Z" id="Fill-1" fill="#191919"></path>
        </g>
    </g>
</svg>