<?xml version="1.0" encoding="UTF-8"?>
<svg width="32px" height="32px" viewBox="0 0 32 32" version="1.1" xmlns="http://www.w3.org/2000/svg" xmlns:xlink="http://www.w3.org/1999/xlink">
    <!-- Generator: Sketch 46.2 (44496) - http://www.bohemiancoding.com/sketch -->
    <title>icon information </title>
    <desc>Created with Sketch.</desc>
    <defs></defs>
    <g id="Page-1" stroke="none" stroke-width="1" fill="none" fill-rule="evenodd">
        <g id="icon-information-" fill="#191919">
            <path d="M16.5,30 C9.04415588,30 3,23.9558441 3,16.5 C3,9.04415588 9.04415588,3 16.5,3 C23.9558441,3 30,9.04415588 30,16.5 C30,23.9558441 23.9558441,30 16.5,30 Z M17,14 C16.4477153,14 16,14.4477153 16,15 L16,23 C16,23.5522847 16.4477153,24 17,24 C17.5522847,24 18,23.5522847 18,23 L18,15 C18,14.4477153 17.5522847,14 17,14 Z M17.0500977,11.9000001 C17.8509106,11.9000001 18.5000978,11.250813 18.5000978,10.45 C18.5000978,9.64918713 17.8509106,9 17.0500977,9 C16.2492848,9 15.6000977,9.64918713 15.6000977,10.45 C15.6000977,11.250813 16.2492848,11.9000001 17.0500977,11.9000001 Z" id="Combined-Shape"></path>
        </g>
    </g>
</svg>