<?xml version="1.0" encoding="UTF-8"?>
<svg width="32px" height="32px" viewBox="0 0 32 32" version="1.1" xmlns="http://www.w3.org/2000/svg" xmlns:xlink="http://www.w3.org/1999/xlink">
    <!-- Generator: Sketch 46.2 (44496) - http://www.bohemiancoding.com/sketch -->
    <title>icon warning </title>
    <desc>Created with Sketch.</desc>
    <defs></defs>
    <g id="Page-1" stroke="none" stroke-width="1" fill="none" fill-rule="evenodd">
        <g id="icon-warning-" fill="#191919">
            <path d="M15.9,21 C16.6732666,21 17.3,21.6267333 17.3,22.4 C17.3,23.1728 16.6732666,23.8 15.9,23.8 C15.1267333,23.8 14.5,23.1728 14.5,22.4 C14.5,21.6267333 15.1267333,21 15.9,21 M15.85,9 C16.3192,9 16.7,9.29831673 16.7,9.66662956 L16.7,18.9994434 C16.7,19.3674229 16.3192,19.666073 15.85,19.666073 C15.3808,19.666073 15,19.3674229 15,18.9994434 L15,9.66662956 C15,9.29831673 15.3808,9 15.85,9 M15.9271341,3.00133276 C15.3944095,3.0246648 14.9110235,3.31164882 14.6459947,3.76162378 L2.20697444,24.7294567 C1.77859449,25.4554162 2.03662257,26.3820313 2.78303712,26.7986748 C3.01972955,26.9310008 3.28809208,27.0003302 3.56112179,26.9999969 L28.4391623,26.9999969 C29.2995893,27.0016635 29.998332,26.3240346 29.9999988,25.4867478 C30.0003322,25.2207626 29.9289911,24.9597772 29.7933097,24.7294567 L17.343955,3.76162378 C17.0545901,3.27065111 16.5081973,2.97766741 15.9271341,3.00133276" id="Fill-1"></path>
        </g>
    </g>
</svg>