<svg xmlns="http://www.w3.org/2000/svg" xmlns:xlink="http://www.w3.org/1999/xlink" viewBox="0 0 24 24">
    <path id="alert-a" d="M20.5815,18.7997 C20.3815,18.9997 20.0815,19.0997 19.8815,19.0997 L2.8815,19.0997 C2.6815,19.0997 2.5815,19.0997 2.3815,18.9997 C1.8815,18.6997 1.7815,18.0997 1.9815,17.5997 L10.4815,3.4997 C10.5815,3.4007 10.6815,3.1997 10.7815,3.1997 C11.2815,2.9007 11.8815,3.0997 12.1815,3.4997 L20.6825,17.5997 C20.7815,17.6997 20.7815,17.9007 20.7815,18.0997 C20.8815,18.4007 20.6825,18.5997 20.5815,18.7997 M22.3815,16.5997 L13.9815,2.4007 C13.5815,1.6997 12.8815,1.1997 12.0815,0.9997 C11.2815,0.7997 10.4815,0.9007 9.7815,1.2997 C9.3815,1.4997 8.9815,1.9007 8.7815,2.2997 L0.3815,16.5997 C-0.4185,17.9997 0.0815,19.9007 1.4815,20.6997 C1.8815,20.9997 2.3815,21.0997 2.8815,21.0997 L19.8815,21.0997 C20.6825,21.0997 21.4815,20.7997 21.9815,20.1997 C22.5815,19.5997 22.8815,18.9007 22.8815,18.0997 C22.7815,17.5997 22.6825,16.9997 22.3815,16.5997 M11,7 C10.4,7 10,7.4 10,8 L10,12 C10,12.601 10.4,13 11,13 C11.6,13 12,12.601 12,12 L12,8 C12,7.4 11.6,7 11,7 M10.3,15.3 C10.1,15.499 10,15.699 10,15.999 C10,16.3 10.1,16.499 10.3,16.699 C10.5,16.9 10.7,16.999 11,16.999 C11.3,16.999 11.5,16.9 11.7,16.699 C11.9,16.499 12,16.199 12,15.999 C12,15.8 11.9,15.499 11.7,15.3 C11.3,14.9 10.7,14.9 10.3,15.3"/>
</svg>
