<svg xmlns="http://www.w3.org/2000/svg" xmlns:xlink="http://www.w3.org/1999/xlink" viewBox="0 0 24 24">
    <path id="api-a" d="M18,17 C18,17.6 17.6,18 17,18 L3,18 C2.4,18 2,17.6 2,17 L2,3 C2,2.4 2.4,2 3,2 L17,2 C17.6,2 18,2.4 18,3 L18,17 Z M17,0 L3,0 C1.3,0 0,1.3 0,3 L0,17 C0,18.7 1.3,20 3,20 L17,20 C18.7,20 20,18.7 20,17 L20,3 C20,1.3 18.7,0 17,0 Z M16.707,9.293 L12.707,5.293 C12.316,4.902 11.684,4.902 11.293,5.293 C10.902,5.684 10.902,6.316 11.293,6.707 L14.586,10 L11.293,13.293 C10.902,13.684 10.902,14.316 11.293,14.707 C11.488,14.902 11.744,15 12,15 C12.256,15 12.512,14.902 12.707,14.707 L16.707,10.707 C17.098,10.316 17.098,9.684 16.707,9.293 M3.293,9.293 L7.293,5.293 C7.684,4.902 8.316,4.902 8.707,5.293 C9.098,5.684 9.098,6.316 8.707,6.707 L5.414,10 L8.707,13.293 C9.098,13.684 9.098,14.316 8.707,14.707 C8.512,14.902 8.256,15 8,15 C7.744,15 7.488,14.902 7.293,14.707 L3.293,10.707 C2.902,10.316 2.902,9.684 3.293,9.293"/>
</svg>
