<svg xmlns="http://www.w3.org/2000/svg" height="24" width="24" viewBox="0 0 24 24">
  <path d="M22.9435415,13.7844311 C23.0188195,13.6338751 23.0188195,13.4080411 22.9435415,13.182207 C22.8682635,13.106929 22.8682635,13.031651 22.7929855,12.956373 L19.0290847,9.1924722 C18.7279726,8.89136014 18.2763045,8.89136014 17.9751925,9.1924722 C17.6740804,9.49358426 17.6740804,9.94525235 17.9751925,10.2463644 L20.459367,12.7305389 L2.08215332,12.7305389 C0.927124023,12.7305389 0.965789795,14.2360992 2.08215332,14.2360992 L20.459367,14.2360992 L17.9751925,16.7202737 C17.6740804,17.0213858 17.6740804,17.4730539 17.9751925,17.774166 C18.1257485,17.924722 18.3515825,18 18.5021386,18 C18.6526946,18 18.8785287,17.924722 19.0290847,17.774166 L22.7929855,14.0102652 C22.8682635,13.9349872 22.9435415,13.8597092 22.9435415,13.7844311 Z"/>
</svg>
