<svg xmlns="http://www.w3.org/2000/svg" viewBox="0 0 24 24">
  <path d="M22.9435415,14.3344739 C23.0188195,14.1839179 23.0188195,13.9580838 22.9435415,13.7322498 C22.8682635,13.6569718 22.8682635,13.5816938 22.7929855,13.5064157 L19.0290847,9.74251497 C18.7279726,9.44140291 18.2763045,9.44140291 17.9751925,9.74251497 C17.6740804,10.043627 17.6740804,10.4952951 17.9751925,10.7964072 L20.459367,13.2805817 L4.76390077,13.2805817 C3.48417451,13.2805817 2.50556031,12.3019675 2.50556031,11.0222412 L2.50556031,5.75278015 C2.50556031,5.30111206 2.20444825,5 1.75278015,5 C1.30111206,5 1,5.30111206 1,5.75278015 L1,11.0222412 C1,13.1300257 2.65611634,14.786142 4.76390077,14.786142 L20.459367,14.786142 L17.9751925,17.2703165 C17.6740804,17.5714286 17.6740804,18.0230967 17.9751925,18.3242087 C18.1257485,18.4747648 18.3515825,18.5500428 18.5021386,18.5500428 C18.6526946,18.5500428 18.8785287,18.4747648 19.0290847,18.3242087 L22.7929855,14.560308 C22.8682635,14.4850299 22.9435415,14.4097519 22.9435415,14.3344739 Z"/>
</svg>
