<svg xmlns="http://www.w3.org/2000/svg" viewBox="0 0 24 24">
  <path d="M23.6722222,14.6444444 C23.75,14.4888889 23.75,14.2555556 23.6722222,14.0222222 C23.5944444,13.9444444 23.5944444,13.8666667 23.5166667,13.7888889 L19.6277778,9.9 C19.3166667,9.58888889 18.85,9.58888889 18.5388889,9.9 C18.2277778,10.2111111 18.2277778,10.6777778 18.5388889,10.9888889 L21.1055556,13.5555556 L4.88888889,13.5555556 C3.56666667,13.5555556 2.55555556,12.5444444 2.55555556,11.2222222 L2.55555556,5.77777778 C2.55555556,5.31111111 2.24444444,5 1.77777778,5 C1.31111111,5 1,5.31111111 1,5.77777778 L1,11.2222222 C1,13.4 2.71111111,15.1111111 4.88888889,15.1111111 L21.1055556,15.1111111 L18.5388889,17.6777778 C18.2277778,17.9888889 18.2277778,18.4555556 18.5388889,18.7666667 C18.6944444,18.9222222 18.9277778,19 19.0833333,19 C19.2388889,19 19.4722222,18.9222222 19.6277778,18.7666667 L23.5166667,14.8777778 C23.5944444,14.8 23.6722222,14.7222222 23.6722222,14.6444444 Z" transform="translate(-1 -5)"/>
</svg>
