<svg xmlns="http://www.w3.org/2000/svg" xmlns:xlink="http://www.w3.org/1999/xlink" viewBox="0 0 24 24">
    <path id="filterup-a" d="M11.29925,18.7 C11.40025,18.8 11.49925,18.9 11.59925,18.9 C11.69925,19 11.90025,19 11.99925,19 C12.09925,19 12.29925,19 12.40025,18.9 C12.49925,18.8 12.59925,18.8 12.69925,18.7 L16.69925,14.7 C17.09925,14.3 17.09925,13.7 16.69925,13.3 C16.29925,12.9 15.69925,12.9 15.29925,13.3 L12.99925,15.599 L12.99925,4 C12.99925,3.4 12.59925,3 11.99925,3 C11.40025,3 10.99925,3.4 10.99925,4 L10.99925,15.599 L8.69925,13.3 C8.29925,12.9 7.69925,12.9 7.29925,13.3 C6.90025,13.7 6.90025,14.3 7.29925,14.7 L11.29925,18.7 Z"/>
</svg>
