<svg xmlns="http://www.w3.org/2000/svg" xmlns:xlink="http://www.w3.org/1999/xlink" viewBox="0 0 24 24">
    <path id="attach-a" d="M20.67425,9.292 C20.28125,8.92 19.69125,8.92 19.29825,9.292 L10.25125,17.841 C8.28425,19.699 5.23625,19.699 3.27025,17.841 C1.30325,15.982 1.30325,13.102 3.27025,11.243 L12.31725,2.694 C13.39825,1.673 15.36425,1.673 16.44625,2.694 C17.62625,3.81 17.62625,5.575 16.44625,6.598 L7.40025,15.146 C7.00625,15.518 6.41625,15.518 6.02325,15.146 C5.92525,15.053 5.82625,14.867 5.82625,14.589 C5.82625,14.31 5.92525,14.124 6.12125,13.938 L14.48025,6.04 C14.87325,5.668 14.87325,5.11 14.48025,4.739 C14.08625,4.367 13.49625,4.367 13.10325,4.739 L4.74425,12.637 C4.15425,13.102 3.86025,13.845 3.86025,14.589 C3.86025,15.332 4.15425,16.075 4.74425,16.54 C5.92525,17.655 7.79325,17.655 8.87425,16.54 L17.92125,7.991 C19.88825,6.133 19.88825,3.252 17.92125,1.394 C17.03625,0.558 15.75825,0 14.48025,0 C13.20125,0 11.92325,0.465 11.03825,1.394 L1.99125,9.942 C-0.66375,12.451 -0.66375,16.633 1.99125,19.142 C3.36825,20.442 5.13825,21 6.90825,21 C8.67825,21 10.44725,20.35 11.82425,19.142 L20.87125,10.593 C21.06825,10.314 21.06825,9.664 20.67425,9.292"/>
</svg>
