<svg xmlns="http://www.w3.org/2000/svg" xmlns:xlink="http://www.w3.org/1999/xlink" viewBox="0 0 24 24">
    <path id="browse-a" d="M1.55555556,3.11111111 C0.696445945,3.11111111 0,2.41466517 0,1.55555556 C0,0.696445945 0.696445945,0 1.55555556,0 C2.41466517,0 3.11111111,0.696445945 3.11111111,1.55555556 C3.11111111,2.41466517 2.41466517,3.11111111 1.55555556,3.11111111 Z M12.4444444,3.11111111 C11.5853348,3.11111111 10.8888889,2.41466517 10.8888889,1.55555556 C10.8888889,0.696445945 11.5853348,0 12.4444444,0 C13.3035541,0 14,0.696445945 14,1.55555556 C14,2.41466517 13.3035541,3.11111111 12.4444444,3.11111111 Z M7,3.11111111 C6.14089039,3.11111111 5.44444444,2.41466517 5.44444444,1.55555556 C5.44444444,0.696445945 6.14089039,0 7,0 C7.85910961,0 8.55555556,0.696445945 8.55555556,1.55555556 C8.55555556,2.41466517 7.85910961,3.11111111 7,3.11111111 Z"/>
</svg>
