<svg xmlns="http://www.w3.org/2000/svg" xmlns:xlink="http://www.w3.org/1999/xlink" viewBox="0 0 24 24">
    <path id="calendar-a" d="M17,20 L3,20 C2.4,20 2,19.6 2,19 L2,10 L18,10 L18,19 C18,19.6 17.6,20 17,20 M3,4 L5,4 L5,5 C5,5.6 5.4,6 6,6 C6.6,6 7,5.6 7,5 L7,4 L13,4 L13,5 C13,5.6 13.4,6 14,6 C14.6,6 15,5.6 15,5 L15,4 L17,4 C17.6,4 18,4.4 18,5 L18,8 L2,8 L2,5 C2,4.4 2.4,4 3,4 M17,2 L15,2 L15,1 C15,0.4 14.6,0 14,0 C13.4,0 13,0.4 13,1 L13,2 L7,2 L7,1 C7,0.4 6.6,0 6,0 C5.4,0 5,0.4 5,1 L5,2 L3,2 C1.3,2 0,3.3 0,5 L0,19 C0,20.7 1.3,22 3,22 L17,22 C18.7,22 20,20.7 20,19 L20,5 C20,3.3 18.7,2 17,2"/>
</svg>
