<svg xmlns="http://www.w3.org/2000/svg" xmlns:xlink="http://www.w3.org/1999/xlink" viewBox="0 0 24 24">
    <path id="camera-a" d="M22,17 C22,17.6 21.6,18 21,18 L3,18 C2.4,18 2,17.6 2,17 L2,6 C2,5.4 2.4,5 3,5 L7,5 C7.3,5 7.6,4.8 7.8,4.6 L9.5,2 L14.4,2 L16.1,4.6 C16.4,4.8 16.7,5 17,5 L21,5 C21.6,5 22,5.4 22,6 L22,17 Z M21,3 L17.5,3 L15.8,0.4 C15.6,0.2 15.3,0 15,0 L9,0 C8.7,0 8.4,0.2 8.2,0.4 L6.5,3 L3,3 C1.3,3 0,4.3 0,6 L0,17 C0,18.7 1.3,20 3,20 L21,20 C22.7,20 24,18.7 24,17 L24,6 C24,4.3 22.7,3 21,3 Z M12,15 C10.3,15 9,13.7 9,12 C9,10.3 10.3,9 12,9 C13.7,9 15,10.3 15,12 C15,13.7 13.7,15 12,15 M12,7 C9.2,7 7,9.2 7,12 C7,14.8 9.2,17 12,17 C14.8,17 17,14.8 17,12 C17,9.2 14.8,7 12,7"/>
</svg>
