<svg xmlns="http://www.w3.org/2000/svg" viewBox="0 0 24 24">
  <path fill-rule="evenodd" d="M10.7522453,15.1960146 C10.5111563,15.4453129 10.5111563,15.8494423 10.7522453,16.0987406 C10.9933343,16.3480389 11.384156,16.3480389 11.625245,16.0987406 L15.1525166,12.451363 C15.3936056,12.2020647 15.3936056,11.7979353 15.1525166,11.548637 L11.625245,7.90125941 C11.384156,7.65196115 10.9933343,7.65196115 10.7522453,7.90125941 C10.5111563,8.15055767 10.5111563,8.55468711 10.7522453,8.80398537 L13.8447807,12.0018237 L10.7522453,15.1960146 Z M12,21 C7,21 3,17 3,12 C3,7 7,3 12,3 C17,3 21,7 21,12 C21,17 17,21 12,21 M12,1 C5.9,1 1,5.9 1,12 C1,18.1 5.9,23 12,23 C18.1,23 23,18.1 23,12 C23,5.9 18.1,1 12,1"/>
</svg>
