<svg xmlns="http://www.w3.org/2000/svg" xmlns:xlink="http://www.w3.org/1999/xlink" viewBox="0 0 24 24">
    <path id="commit-a" d="M19.0020067,16.993 C11.0730067,16.966 11.0170067,6.35 11.0180067,5.894 L11.0180067,3.389 L13.3420067,5.67 C13.5370067,5.862 13.7890067,5.957 14.0420067,5.957 C14.3030067,5.957 14.5620067,5.856 14.7590067,5.656 C15.1450067,5.26 15.1390067,4.624 14.7430067,4.237 L10.7160067,0.286 C10.7080067,0.279 10.6970067,0.277 10.6890067,0.269 C10.6060067,0.192 10.5130067,0.124 10.4030067,0.078 C10.3980067,0.076 10.3950067,0.076 10.3910067,0.075 C10.3740067,0.068 10.3570067,0.068 10.3410067,0.062 C10.2440067,0.029 10.1470067,0.011 10.0480067,0.008 C10.0300067,0.008 10.0140067,0.002 9.99600669,0.002 C9.99200669,0.002 9.98800669,0 9.98400669,0 C9.95900669,0 9.93800669,0.013 9.91300669,0.014 C9.85200669,0.021 9.79300669,0.033 9.73300669,0.051 C9.52300669,0.106 9.34600669,0.221 9.21400669,0.386 L5.32800669,4.217 C4.93400669,4.606 4.92800669,5.241 5.31600669,5.637 C5.70400669,6.031 6.33800669,6.036 6.73200669,5.648 L8.98200669,3.429 L8.98200669,5.899 C8.98300669,6.35 8.92700669,16.966 0.998006685,16.993 C0.445006685,16.995 -0.00199331469,17.446 6.68530859e-06,18 C0.00200668531,18.553 0.450006685,19 1.00200669,19 L1.00600669,19 C3.51500669,18.991 5.62200669,18.142 7.27100669,16.477 C8.60300669,15.131 9.45200669,13.422 10.0000067,11.771 C10.5490067,13.422 11.3980067,15.131 12.7300067,16.477 C14.3780067,18.142 16.4850067,18.991 18.9940067,19 L18.9980067,19 C19.5500067,19 19.9980067,18.553 20.0000067,18 C20.0020067,17.446 19.5550067,16.995 19.0020067,16.993"/>
</svg>
