<svg xmlns="http://www.w3.org/2000/svg" xmlns:xlink="http://www.w3.org/1999/xlink" viewBox="0 0 24 24">
    <path id="composition-a" d="M17,18.05 C16.448,18.05 16,17.602 16,17.05 C16,16.498 16.448,16.05 17,16.05 C17.552,16.05 18,16.498 18,17.05 C18,17.602 17.552,18.05 17,18.05 M3,18.05 C2.448,18.05 2,17.602 2,17.05 C2,16.498 2.448,16.05 3,16.05 C3.552,16.05 4,16.498 4,17.05 C4,17.602 3.552,18.05 3,18.05 M3,2.05 C3.552,2.05 4,2.498 4,3.05 C4,3.602 3.552,4.05 3,4.05 C2.448,4.05 2,3.602 2,3.05 C2,2.498 2.448,2.05 3,2.05 M10,9.05 C10.552,9.05 11,9.498 11,10.05 C11,10.602 10.552,11.05 10,11.05 C9.448,11.05 9,10.602 9,10.05 C9,9.498 9.448,9.05 10,9.05 M17,14.05 C15.695,14.05 14.597,14.888 14.184,16.05 L5.816,16.05 C5.515,15.201 4.849,14.535 4,14.234 L4,11.05 L7.184,11.05 C7.597,12.212 8.695,13.05 10,13.05 C11.657,13.05 13,11.707 13,10.05 C13,8.393 11.657,7.05 10,7.05 C8.695,7.05 7.597,7.888 7.184,9.05 L4,9.05 L4,5.866 C5.162,5.453 6,4.355 6,3.05 C6,1.393 4.657,0.05 3,0.05 C1.343,0.05 0,1.393 0,3.05 C0,4.355 0.838,5.453 2,5.866 L2,14.234 C0.838,14.647 0,15.745 0,17.05 C0,18.707 1.343,20.05 3,20.05 C4.305,20.05 5.403,19.212 5.816,18.05 L14.184,18.05 C14.597,19.212 15.695,20.05 17,20.05 C18.657,20.05 20,18.707 20,17.05 C20,15.393 18.657,14.05 17,14.05"/>
</svg>
