<svg xmlns="http://www.w3.org/2000/svg" xmlns:xlink="http://www.w3.org/1999/xlink" viewBox="0 0 24 24">
    <path id="copy-a" d="M2,19 C2,19.6 2.4,20 3,20 L12,20 C12.6,20 13,19.6 13,19 L13,10 C13,9.4 12.6,9 12,9 L3,9 C2.4,9 2,9.4 2,10 L2,19 Z M3,7 L12,7 C13.7,7 15,8.3 15,10 L15,19 C15,20.7 13.7,22 12,22 L3,22 C1.3,22 0,20.7 0,19 L0,10 C0,8.3 1.3,7 3,7 Z M18,13 L19,13 C19.6,13 20,12.6 20,12 L20,3 C20,2.4 19.6,2 19,2 L10,2 C9.4,2 9,2.4 9,3 L9,4 C9,4.6 8.6,5 8,5 C7.4,5 7,4.6 7,4 L7,3 C7,1.3 8.3,0 10,0 L19,0 C20.7,0 22,1.3 22,3 L22,12 C22,13.7 20.7,15 19,15 L18,15 C17.4,15 17,14.6 17,14 C17,13.4 17.4,13 18,13 Z"/>
</svg>
