<svg xmlns="http://www.w3.org/2000/svg" xmlns:xlink="http://www.w3.org/1999/xlink" viewBox="0 0 24 24">
    <path id="deployment_artifacts-a" d="M18,17 C18,17.6 17.6,18 17,18 L3,18 C2.4,18 2,17.6 2,17 L2,3 C2,2.4 2.4,2 3,2 L17,2 C17.6,2 18,2.4 18,3 L18,17 Z M17,0 L3,0 C1.3,0 0,1.3 0,3 L0,17 C0,18.7 1.3,20 3,20 L17,20 C18.7,20 20,18.7 20,17 L20,3 C20,1.3 18.7,0 17,0 Z M5,14 C5,13.448 5.448,13 6,13 C6.552,13 7,13.448 7,14 C7,14.552 6.552,15 6,15 C5.448,15 5,14.552 5,14 M10,5 C10.552,5 11,5.448 11,6 C11,6.552 10.552,7 10,7 C9.448,7 9,6.552 9,6 C9,5.448 9.448,5 10,5 M15,14 C15,14.552 14.552,15 14,15 C13.448,15 13,14.552 13,14 C13,13.448 13.448,13 14,13 C14.552,13 15,13.448 15,14 M7.513,11.423 L9.064,8.836 C9.36,8.935 9.671,9 10,9 C10.159,9 10.312,8.977 10.465,8.953 L12.367,11.488 C11.82,11.845 11.406,12.375 11.184,13 L8.816,13 C8.579,12.331 8.115,11.777 7.513,11.423 M8.816,15 L11.184,15 C11.597,16.162 12.695,17 14,17 C15.657,17 17,15.657 17,14 C17,12.528 15.938,11.31 14.54,11.055 L12.236,7.982 C12.706,7.453 13,6.764 13,6 C13,4.343 11.657,3 10,3 C8.343,3 7,4.343 7,6 C7,6.591 7.177,7.139 7.472,7.603 L5.397,11.061 C4.029,11.34 3,12.55 3,14 C3,15.657 4.343,17 6,17 C7.305,17 8.403,16.162 8.816,15"/>
</svg>
