<svg xmlns="http://www.w3.org/2000/svg" xmlns:xlink="http://www.w3.org/1999/xlink" viewBox="0 0 24 24">
    <path id="distributed-a" d="M18.5,13 C17.672,13 17,12.329 17,11.5 C17,10.671 17.672,10 18.5,10 C19.328,10 20,10.671 20,11.5 C20,12.329 19.328,13 18.5,13 M16.5,18 C15.672,18 15,17.329 15,16.5 C15,15.671 15.672,15 16.5,15 C17.328,15 18,15.671 18,16.5 C18,17.329 17.328,18 16.5,18 M11.5,20 C10.672,20 10,19.329 10,18.5 C10,17.671 10.672,17 11.5,17 C12.328,17 13,17.671 13,18.5 C13,19.329 12.328,20 11.5,20 M16.5,5 C17.328,5 18,5.671 18,6.5 C18,7.329 17.328,8 16.5,8 C15.672,8 15,7.329 15,6.5 C15,5.671 15.672,5 16.5,5 M6.5,18 C5.672,18 5,17.329 5,16.5 C5,15.671 5.672,15 6.5,15 C7.328,15 8,15.671 8,16.5 C8,17.329 7.328,18 6.5,18 M11,0 C8.061,0 10.968,6.138 9,8 C6.884,10.001 0,7.84 0,11 C0,17.1 4.9,22 11,22 C17.1,22 22,17.1 22,11 C22,4.9 17.1,0 11,0"/>
</svg>
