<svg xmlns="http://www.w3.org/2000/svg" xmlns:xlink="http://www.w3.org/1999/xlink" viewBox="0 0 24 24">
    <path id="download-a" d="M19,15 C19.6,15 20,15.4 20,16 L20,19 C20,20.7 18.7,22 17,22 L3,22 C1.3,22 0,20.7 0,19 L0,16 C0,15.4 0.4,15 1,15 C1.6,15 2,15.4 2,16 L2,19 C2,19.6 2.4,20 3,20 L17,20 C17.6,20 18,19.6 18,19 L18,16 C18,15.4 18.4,15 19,15 Z M9.29925,15.7 L5.29925,11.7 C4.90025,11.3 4.90025,10.7 5.29925,10.3 C5.69925,9.9 6.29925,9.9 6.69925,10.3 L8.99925,12.599 L8.99925,1 C8.99925,0.4 9.40025,0 9.99925,0 C10.59925,0 10.99925,0.4 10.99925,1 L10.99925,12.599 L13.29925,10.3 C13.69925,9.9 14.29925,9.9 14.69925,10.3 C15.09925,10.7 15.09925,11.3 14.69925,11.7 L10.69925,15.7 C10.59925,15.8 10.49925,15.8 10.40025,15.9 C10.29925,16 10.09925,16 9.99925,16 C9.90025,16 9.69925,16 9.59925,15.9 C9.49925,15.9 9.40025,15.8 9.29925,15.7 Z"/>
</svg>
