<svg xmlns="http://www.w3.org/2000/svg" xmlns:xlink="http://www.w3.org/1999/xlink" viewBox="0 0 24 24">
    <path id="edit-a" d="M2,12.3999 L12,2.3999 L14.6,4.9999 L4.6,14.9999 L2,14.9999 L2,12.3999 Z M1,16.9999 C0.4,16.9999 0,16.5999 0,15.9999 L0,11.9999 C0,11.6999 0.1,11.4999 0.3,11.2999 L11.3,0.2999 C11.7,-0.1001 12.3,-0.1001 12.7,0.2999 L16.7,4.2999 C17.1,4.6999 17.1,5.2999 16.7,5.6999 L5.7,16.6999 C5.5,16.8999 5.3,16.9999 5,16.9999 L1,16.9999 Z M19,20 C19.6,20 20,20.4 20,21 C20,21.6 19.6,22 19,22 L1,22 C0.4,22 0,21.6 0,21 C0,20.4 0.4,20 1,20 L19,20 Z"/>
</svg>
