<svg xmlns="http://www.w3.org/2000/svg" xmlns:xlink="http://www.w3.org/1999/xlink" viewBox="0 0 24 24">
    <path id="edit_file-a" d="M19,12.7001 C19.6,12.7001 20,13.0991 20,13.7001 L20,19.0001 C20,20.7001 18.7,22.0001 17,22.0001 L3,22.0001 C1.3,22.0001 0,20.7001 0,19.0001 L0,5.0001 C0,3.3001 1.3,2.0001 3,2.0001 L8.3,2.0001 C8.9,2.0001 9.3,2.4001 9.3,3.0001 C9.3,3.5991 8.9,4.0001 8.3,4.0001 L3,4.0001 C2.4,4.0001 2,4.4001 2,5.0001 L2,19.0001 C2,19.5991 2.4,20.0001 3,20.0001 L17,20.0001 C17.6,20.0001 18,19.5991 18,19.0001 L18,13.7001 C18,13.0991 18.4,12.7001 19,12.7001 Z M10.5996,13.9999 L7.9996,13.9999 L7.9996,11.3999 L16.9996,2.3999 L19.5996,4.9999 L10.5996,13.9999 Z M21.7006,4.2999 L17.7006,0.2999 C17.2996,-0.1001 16.7006,-0.1001 16.2996,0.2999 L6.2996,10.2999 C6.0996,10.4999 5.9996,10.6999 5.9996,10.9999 L5.9996,14.9999 C5.9996,15.5999 6.4006,15.9999 6.9996,15.9999 L10.9996,15.9999 C11.2996,15.9999 11.4996,15.8999 11.7006,15.6999 L21.7006,5.6999 C22.0996,5.2999 22.0996,4.6999 21.7006,4.2999 Z"/>
</svg>
