<svg xmlns="http://www.w3.org/2000/svg" xmlns:xlink="http://www.w3.org/1999/xlink" viewBox="0 0 24 24">
    <path id="expand-a" d="M19.9006,0.6 C20.0006,0.701 20.0006,0.901 20.0006,1 L20.0006,7 C20.0006,7.6 19.5996,8 19.0006,8 C18.4006,8 18.0006,7.6 18.0006,7 L18.0006,3.401 L12.7006,8.701 C12.5006,8.901 12.2006,9 12.0006,9 C11.7996,9 11.5006,8.901 11.2996,8.701 C10.9006,8.3 10.9006,7.701 11.2996,7.3 L16.5996,2 L13.0006,2 C12.4006,2 12.0006,1.6 12.0006,1 C12.0006,0.401 12.4006,0 13.0006,0 L19.0006,0 C19.0996,0 19.2996,0 19.4006,0.1 C19.5996,0.201 19.7996,0.401 19.9006,0.6 Z M7.3,11.3002 C7.7,10.9012 8.3,10.9012 8.7,11.3002 C9.1,11.7002 9.1,12.3002 8.7,12.7002 L3.401,18.0002 L7,18.0002 C7.6,18.0002 8,18.4012 8,19.0002 C8,19.6002 7.6,20.0002 7,20.0002 L1,20.0002 C0.901,20.0002 0.7,20.0002 0.6,19.9012 C0.401,19.8002 0.2,19.6002 0.1,19.4012 C0,19.3002 0,19.1002 0,19.0002 L0,13.0002 C0,12.4012 0.401,12.0002 1,12.0002 C1.6,12.0002 2,12.4012 2,13.0002 L2,16.6002 L7.3,11.3002 Z M19.4006,19.9008 C19.2996,20.0008 19.0996,20.0008 19.0006,20.0008 L13.0006,20.0008 C12.4006,20.0008 12.0006,19.5998 12.0006,19.0008 C12.0006,18.4008 12.4006,18.0008 13.0006,18.0008 L16.5996,18.0008 L11.2996,12.7008 C11.0996,12.5008 11.0006,12.2008 11.0006,12.0008 C11.0006,11.7998 11.0996,11.5008 11.2996,11.2998 C11.7006,10.9008 12.2996,10.9008 12.7006,11.2998 L18.0006,16.5998 L18.0006,13.0008 C18.0006,12.4008 18.4006,12.0008 19.0006,12.0008 C19.5996,12.0008 20.0006,12.4008 20.0006,13.0008 L20.0006,19.0008 C20.0006,19.0998 20.0006,19.2998 19.9006,19.4008 C19.7996,19.5998 19.5996,19.7998 19.4006,19.9008 Z M8.7004,7.3002 C9.0994,7.7002 9.0994,8.3002 8.7004,8.7002 C8.3004,9.1002 7.7004,9.1002 7.3004,8.7002 L2.0004,3.4012 L2.0004,7.0002 C2.0004,7.6002 1.5994,8.0002 1.0004,8.0002 C0.4004,8.0002 0.0004,7.6002 0.0004,7.0002 L0.0004,1.0002 C0.0004,0.9012 0.0004,0.7002 0.0994,0.6002 C0.2004,0.4012 0.4004,0.2002 0.5994,0.1002 C0.7004,0.0002 0.9004,0.0002 1.0004,0.0002 L7.0004,0.0002 C7.5994,0.0002 8.0004,0.4012 8.0004,1.0002 C8.0004,1.6002 7.5994,2.0002 7.0004,2.0002 L3.4004,2.0002 L8.7004,7.3002 Z"/>
</svg>
