<svg xmlns="http://www.w3.org/2000/svg" xmlns:xlink="http://www.w3.org/1999/xlink" viewBox="0 0 24 24">
    <path id="view-a" d="M11.975,16 C6.575,16 3.075,10.6 2.075,9 C2.975,7.4 6.575,2 11.975,2 C17.375,2 20.875,7.4 21.875,9 C20.875,10.6 17.375,16 11.975,16 M23.875,8.6 C23.675,8.2 19.475,0 11.975,0 C4.475,0 0.275,8.2 0.075,8.6 C-0.025,8.9 -0.025,9.2 0.075,9.5 C0.275,9.8 4.475,18 11.975,18 C19.475,18 23.675,9.8 23.875,9.4 C23.975,9.2 23.975,8.8 23.875,8.6 M12,11 C10.9,11 10,10.1 10,9 C10,7.9 10.9,7 12,7 C13.1,7 14,7.9 14,9 C14,10.1 13.1,11 12,11 M12,5 C9.8,5 8,6.8 8,9 C8,11.2 9.8,13 12,13 C14.2,13 16,11.2 16,9 C16,6.8 14.2,5 12,5"/>
</svg>
