<svg xmlns="http://www.w3.org/2000/svg" xmlns:xlink="http://www.w3.org/1999/xlink" viewBox="0 0 24 24">
    <path id="filter-a" d="M12.2092536,9.8 C12.1082536,10 12.0092536,10.2 12.0092536,10.5 L12.0092536,17.401 L10.0092536,16.401 L10.0092536,10.5 C10.0092536,10.3 9.90925355,10 9.80925355,9.901 L3.20925355,2 L18.9092536,2 L12.2092536,9.8 Z M21.9092536,0.6 C21.7092536,0.2 21.4092536,0 21.0092536,0 L1.00925355,0 C0.608253553,0 0.309253553,0.2 0.108253553,0.6 C-0.0907464471,0.901 0.00925355294,1.3 0.209253553,1.6 L8.00925355,10.8 L8.00925355,17 C8.00925355,17.401 8.20925355,17.7 8.60825355,17.901 L12.6082536,19.901 C12.7092536,20 12.8092536,20 13.0092536,20 C13.2092536,20 13.4092536,20 13.5092536,19.901 C13.8092536,19.7 14.0092536,19.401 14.0092536,19 L14.0092536,10.8 L21.8092536,1.6 C22.0092536,1.3 22.1082536,0.901 21.9092536,0.6 Z"/>
</svg>
