<svg xmlns="http://www.w3.org/2000/svg" xmlns:xlink="http://www.w3.org/1999/xlink" viewBox="0 0 24 24">
    <path id="information_artifacts-a" d="M10,9 C10.6,9 11,9.4 11,10 L11,14 C11,14.601 10.6,15 10,15 C9.4,15 9,14.601 9,14 L9,10 C9,9.4 9.4,9 10,9 Z M9.3,5.29925 C9.7,4.90025 10.3,4.90025 10.7,5.29925 C10.901,5.49925 11,5.69925 11,5.99925 C11,6.29925 10.901,6.49925 10.7,6.69925 C10.5,6.90025 10.3,6.99925 10,6.99925 C9.7,6.99925 9.5,6.90025 9.3,6.69925 C9.1,6.49925 9,6.29925 9,5.99925 C9,5.69925 9.1,5.49925 9.3,5.29925 Z M18,17 C18,17.6 17.6,18 17,18 L3,18 C2.4,18 2,17.6 2,17 L2,3 C2,2.4 2.4,2 3,2 L17,2 C17.6,2 18,2.4 18,3 L18,17 Z M17,0 L3,0 C1.3,0 0,1.3 0,3 L0,17 C0,18.7 1.3,20 3,20 L17,20 C18.7,20 20,18.7 20,17 L20,3 C20,1.3 18.7,0 17,0 Z"/>
</svg>
