<svg xmlns="http://www.w3.org/2000/svg" xmlns:xlink="http://www.w3.org/1999/xlink" viewBox="0 0 24 24">
    <path id="inputs-a" d="M18,17.05 C18,17.65 17.6,18.05 17,18.05 L3,18.05 C2.4,18.05 2,17.65 2,17.05 L2,3.05 C2,2.45 2.4,2.05 3,2.05 L17,2.05 C17.6,2.05 18,2.45 18,3.05 L18,17.05 Z M17,0.05 L3,0.05 C1.3,0.05 0,1.35 0,3.05 L0,17.05 C0,18.75 1.3,20.05 3,20.05 L17,20.05 C18.7,20.05 20,18.75 20,17.05 L20,3.05 C20,1.35 18.7,0.05 17,0.05 Z M15,5.05 L5,5.05 C4.45,5.05 4,5.5 4,6.05 C4,6.6 4.45,7.05 5,7.05 L15,7.05 C15.55,7.05 16,6.6 16,6.05 C16,5.5 15.55,5.05 15,5.05 M15,9.05 L5,9.05 C4.45,9.05 4,9.5 4,10.05 C4,10.6 4.45,11.05 5,11.05 L15,11.05 C15.55,11.05 16,10.6 16,10.05 C16,9.5 15.55,9.05 15,9.05"/>
</svg>
