<svg xmlns="http://www.w3.org/2000/svg" xmlns:xlink="http://www.w3.org/1999/xlink" viewBox="0 0 24 24">
    <path id="notifications-a" d="M4.5,15 C4.8,14.4 5,13.7 5,13 L5,8 C5,4.7 7.7,2 11,2 C14.3,2 17,4.7 17,8 L17,13 C17,13.7 17.2,14.4 17.5,15 L4.5,15 Z M21,15 C21.6,15 22,15.4 22,16 C22,16.6 21.6,17 21,17 L1,17 C0.4,17 0,16.6 0,16 C0,15.4 0.4,15 1,15 C2.1,15 3,14.1 3,13 L3,8 C3,3.6 6.6,0 11,0 C15.4,0 19,3.6 19,8 L19,13 C19,14.1 19.9,15 21,15 Z M14.0968122,19.141054 C14.5968122,19.441054 14.7968122,20.041054 14.2968122,20.541054 C13.6968122,21.541054 12.6968122,22.041054 11.6968122,22.041054 C11.1968122,22.041054 10.6968122,21.941054 10.1968122,21.641054 C9.69681223,21.341054 9.39681223,21.041054 9.09681223,20.541054 C8.89681223,20.041054 8.99581223,19.441054 9.49581223,19.141054 C9.99581223,18.941054 10.5968122,19.041054 10.8968122,19.541054 C10.9958122,19.741054 11.0968122,19.841054 11.2968122,19.941054 C11.7968122,20.141054 12.3968122,20.041054 12.6968122,19.541054 C12.9958122,19.041054 13.5968122,18.841054 14.0968122,19.141054 Z"/>
</svg>
