<svg xmlns="http://www.w3.org/2000/svg" xmlns:xlink="http://www.w3.org/1999/xlink" viewBox="0 0 24 24">
    <path id="permissions-a" d="M13,12 L5,12 C2.2,12 0,14.2 0,17 L0,19 C0,19.6 0.4,20 1,20 C1.6,20 2,19.6 2,19 L2,17 C2,15.3 3.3,14 5,14 L13,14 C14.7,14 16,15.3 16,17 L16,19 C16,19.6 16.4,20 17,20 C17.6,20 18,19.6 18,19 L18,17 C18,14.2 15.8,12 13,12 M9,2 C10.7,2 12,3.3 12,5 C12,6.7 10.7,8 9,8 C7.3,8 6,6.7 6,5 C6,3.3 7.3,2 9,2 M9,10 C11.8,10 14,7.8 14,5 C14,2.2 11.8,0 9,0 C6.2,0 4,2.2 4,5 C4,7.8 6.2,10 9,10 M20.2191602,12.0191602 C19.7191602,11.9191602 19.1181602,12.2191602 19.0191602,12.7191602 C18.9191602,13.2191602 19.2191602,13.8191602 19.7191602,13.9191602 C21.0191602,14.2191602 21.9191602,15.4191602 21.9191602,16.8191602 L21.9191602,18.8191602 C21.9191602,19.4191602 22.3191602,19.8191602 22.9191602,19.8191602 C23.5191602,19.8191602 23.9191602,19.4191602 23.9191602,18.8191602 L23.9191602,16.8191602 C24.0191602,14.5191602 22.5191602,12.5191602 20.2191602,12.0191602 M16.2525961,0.0617044797 C15.7525961,-0.13829552 15.2525961,0.16170448 15.0525961,0.76170448 C14.9525961,1.26170448 15.2525961,1.86170448 15.7525961,1.96170448 C17.3525961,2.36170448 18.3525961,3.96170448 17.9525961,5.66170448 C17.6515961,6.76170448 16.8525961,7.56170448 15.7525961,7.86170448 C15.2525961,7.96170448 14.8525961,8.56170448 15.0525961,9.06170448 C15.1515961,9.56170448 15.5525961,9.86170448 16.0525961,9.86170448 L16.2525961,9.86170448 C18.0525961,9.36170448 19.4525961,8.06170448 19.8525961,6.26170448 C20.5525961,3.46170448 18.9525961,0.66170448 16.2525961,0.0617044797"/>
</svg>
