<svg xmlns="http://www.w3.org/2000/svg" xmlns:xlink="http://www.w3.org/1999/xlink" width="24" height="24" viewBox="0 0 24 24">
  <g fill-rule="evenodd" transform="translate(1 1)">
    <path id="?-copy-a" d="M12.1251444,5.21141885 C10.0241444,4.51141885 7.72514439,5.61041885 7.02414439,7.61141885 C6.92514439,8.21141885 7.12514439,8.81141885 7.72514439,8.91141885 C8.22514439,9.11141885 8.82514439,8.81141885 9.02414439,8.31141885 C9.42514439,7.31141885 10.5241444,6.71141885 11.6251444,7.11141885 C12.4251444,7.41141885 12.9251444,8.11141885 12.9251444,9.01141885 C12.9251444,10.0114188 11.2251444,10.8114188 10.6251444,11.1114188 C10.1251444,11.3114188 9.82514439,11.8114188 10.0241444,12.4114188 C10.1251444,12.8114188 10.5241444,13.1114188 10.9251444,13.1114188 C11.0241444,13.1114188 11.1251444,13.1114188 11.2251444,13.0114188 C11.6251444,12.9114188 14.9251444,11.7114188 14.9251444,9.11141885 C14.8251444,7.31141885 13.7251444,5.81141885 12.1251444,5.21141885 M11,0 C4.9,0 0,4.9 0,11 C0,17.101 4.9,22 11,22 C17.1,22 22,17.101 22,11 C22,4.9 17.1,0 11,0 M10.3,15.29925 C10.1,15.49925 10,15.69925 10,15.99925 C10,16.29925 10.1,16.49925 10.3,16.69925 C10.5,16.90025 10.7,16.99925 11,16.99925 C11.3,16.99925 11.5,16.90025 11.7,16.69925 C11.901,16.49925 12,16.19925 12,15.99925 C12,15.79925 11.901,15.49925 11.7,15.29925 C11.3,14.90025 10.7,14.90025 10.3,15.29925"/>
  </g>
</svg>
