<svg xmlns="http://www.w3.org/2000/svg" xmlns:xlink="http://www.w3.org/1999/xlink" viewBox="0 0 24 24">
    <path id="req.&amp;capabilities-a" d="M19,20 C19,20.6 18.6,21 18,21 L6,21 C5.4,21 5,20.6 5,20 L5,6 C5,5.4 5.4,5 6,5 L7,5 C7,6.1 7.9,7 9,7 L15,7 C16.1,7 17,6.1 17,5 L18,5 C18.6,5 19,5.4 19,6 L19,20 Z M9,3 L15,3 L15,5 L9,5 L9,4 L9,3 Z M18,3 L17,3 C17,1.9 16.1,1 15,1 L9,1 C7.9,1 7,1.9 7,3 L6,3 C4.3,3 3,4.3 3,6 L3,20 C3,21.7 4.3,23 6,23 L18,23 C19.7,23 21,21.7 21,20 L21,6 C21,4.3 19.7,3 18,3 Z M17,10 L7,10 C6.45,10 6,10.45 6,11 C6,11.55 6.45,12 7,12 L17,12 C17.55,12 18,11.55 18,11 C18,10.45 17.55,10 17,10 M17,14 L7,14 C6.45,14 6,14.45 6,15 C6,15.55 6.45,16 7,16 L17,16 C17.55,16 18,15.55 18,15 C18,14.45 17.55,14 17,14"/> 
</svg>
