<svg xmlns="http://www.w3.org/2000/svg" xmlns:xlink="http://www.w3.org/1999/xlink" viewBox="0 0 24 24">
    <path id="revert-a" d="M13,10.6 L15.7,13.3 C16.1,13.7 16.1,14.3 15.7,14.7 C15.5,14.9 15.2,15 15,15 C14.8,15 14.5,14.9 14.3,14.7 L11.3,11.7 C11.1,11.5 11,11.3 11,11 L11,5 C11,4.4 11.4,4 12,4 C12.6,4 13,4.4 13,5 L13,10.6 Z M21.4037815,6.69868189 C23.3027815,11.8986819 20.5037815,17.5986819 15.3027815,19.3986819 C14.2037815,19.7986819 13.1027815,19.9986819 12.0037815,19.9986819 C7.90378148,19.9986819 4.00378148,17.3986819 2.50378148,13.2986819 C2.30278148,12.7986819 2.60278148,12.1986819 3.10278148,11.9986819 C3.60278148,11.7986819 4.20378148,12.0986819 4.40378148,12.5986819 C5.90378148,16.7986819 10.4037815,18.9986819 14.6027815,17.4986819 C16.7037815,16.7986819 18.3027815,15.2986819 19.2037815,13.3986819 C20.1027815,11.4986819 20.2037815,9.29868189 19.5037815,7.29868189 C18.8027815,5.19868189 17.3027815,3.59868189 15.4037815,2.69868189 C13.5037815,1.79868189 11.3027815,1.69868189 9.30278148,2.39868189 C8.20378148,2.79868189 7.10278148,3.49868189 6.30278148,4.29868189 L3.50378148,6.99868189 L7.00378148,6.99868189 C7.60278148,6.99868189 7.80278148,7.19868189 7.80278148,7.79868189 C7.80278148,8.39868189 7.40378148,8.79868189 6.80278148,8.79868189 L0.802781478,8.79868189 L0.602781478,8.79868189 L0.503781478,8.79868189 L0.403781478,8.69868189 C0.302781478,8.69868189 0.302781478,8.69868189 0.203781478,8.59868189 C0.102781478,8.59868189 0.102781478,8.49868189 0.102781478,8.49868189 C0.102781478,8.39868189 0.00378147753,8.39868189 0.00378147753,8.29868189 L0.00378147753,8.09868189 L0.00378147753,7.99868189 L0.00378147753,1.99868189 C0.00378147753,1.39868189 0.403781478,0.998681894 1.00378148,0.998681894 C1.60278148,0.998681894 2.00378148,1.39868189 2.00378148,1.99868189 L2.00378148,5.69868189 L5.00378148,2.89868189 C6.00378148,1.89868189 7.30278148,1.09868189 8.70378148,0.598681894 C11.2037815,-0.301318106 13.9037815,-0.201318106 16.3027815,0.998681894 C18.7037815,2.19868189 20.5037815,4.19868189 21.4037815,6.69868189 Z"/> 
</svg>
