<svg xmlns="http://www.w3.org/2000/svg" xmlns:xlink="http://www.w3.org/1999/xlink" viewBox="0 0 24 24">
    <path id="save-a" d="M18,17 C18,17.6 17.6,18 17,18 L16,18 L16,11 C16,10.4 15.6,10 15,10 L5,10 C4.4,10 4,10.4 4,11 L4,18 L3,18 C2.4,18 2,17.6 2,17 L2,3 C2,2.4 2.4,2 3,2 L4,2 L4,6 C4,6.6 4.4,7 5,7 L13,7 C13.6,7 14,6.6 14,6 C14,5.4 13.6,5 13,5 L6,5 L6,2 L13.6,2 L18,6.4 L18,17 Z M6,18 L14,18 L14,12 L6,12 L6,18 Z M19.7,5.3 L14.7,0.3 C14.5,0.1 14.3,0 14,0 L3,0 C1.3,0 0,1.3 0,3 L0,17 C0,18.7 1.3,20 3,20 L17,20 C18.7,20 20,18.7 20,17 L20,6 C20,5.7 19.9,5.5 19.7,5.3 Z"/>
</svg>
