<svg xmlns="http://www.w3.org/2000/svg" xmlns:xlink="http://www.w3.org/1999/xlink" viewBox="0 0 24 24">
    <path id="settings-a" d="M12.0004,14.0004 C10.9004,14.0004 10.0004,13.1004 10.0004,12.0004 C10.0004,10.8994 10.9004,10.0004 12.0004,10.0004 C13.1004,10.0004 14.0004,10.8994 14.0004,12.0004 C14.0004,13.1004 13.1004,14.0004 12.0004,14.0004 M12.0004,8.0004 C9.8004,8.0004 8.0004,9.8004 8.0004,12.0004 C8.0004,14.2004 9.8004,16.0004 12.0004,16.0004 C14.2004,16.0004 16.0004,14.2004 16.0004,12.0004 C16.0004,9.8004 14.2004,8.0004 12.0004,8.0004 M19.1,17.6 C19.3,17.8 19.401,18 19.401,18.3 C19.401,18.6 19.3,18.8 19.1,19 C18.901,19.201 18.701,19.3 18.401,19.3 C18.1,19.3 17.901,19.201 17.6,18.9 C16.8,18.1 15.701,17.9 14.701,18.4 C13.701,18.8 13.1,19.8 13.1,20.8 L13.1,21 C13.1,21.6 12.701,22 12.1,22 C11.5,22 11.1,21.6 11.1,21 L11.1,20.9 C11.1,19.8 10.401,18.9 9.401,18.5 C9.1,18.3 8.701,18.3 8.3,18.3 C7.6,18.3 6.901,18.6 6.401,19.1 C6,19.5 5.5,19.5 5.1,19.201 L4.901,18.8 L4.8,18.8 C4.701,18.701 4.701,18.5 4.701,18.4 C4.701,18.1 4.8,17.9 5.1,17.6 C5.901,16.8 6.1,15.701 5.6,14.701 C5.201,13.701 4.201,13.1 3.201,13.1 L3,13.1 C2.401,13.1 2,12.701 2,12.1 C2,11.5 2.401,11.1 3,11.1 L3.1,11.1 C4.201,11.1 5.1,10.4 5.5,9.4 C5.901,8.4 5.701,7.3 4.901,6.4 C4.5,6 4.5,5.4 4.901,5 C5.3,4.6 5.901,4.6 6.401,5.1 C7.1,5.8 8.201,6 9.1,5.701 L9.401,5.6 C10.401,5.201 11,4.201 11,3.201 L11,3 C11,2.4 11.401,2 12,2 C12.6,2 13,2.4 13,3.1 C13,4.201 13.6,5.1 14.6,5.5 C15.6,5.9 16.701,5.701 17.6,4.9 C17.8,4.701 18,4.6 18.3,4.6 C18.6,4.6 18.8,4.701 19,4.9 C19.401,5.3 19.401,5.9 18.901,6.4 C18.201,7.1 18,8.201 18.3,9.1 L18.401,9.4 C18.8,10.4 19.8,11 20.8,11 L21,11 C21.6,11 22,11.4 22,12 C22,12.6 21.6,13 20.901,13 C19.8,13 18.901,13.6 18.5,14.6 C18,15.6 18.3,16.701 19.1,17.6 M20.3,15.4 C20.401,15.201 20.6,15 21,15 C22.701,15 24,13.701 24,12 C24,10.3 22.701,9 21,9 L20.8,9 C20.6,9 20.401,8.9 20.3,8.701 L20.201,8.5 C20.1,8.3 20.1,8 20.401,7.701 C21.5,6.6 21.6,5 20.701,3.8 L20.701,3.5 L20.3,3.3 C19.8,2.8 19.1,2.5 18.3,2.5 C17.5,2.5 16.701,2.8 16.1,3.4 C15.901,3.6 15.6,3.6 15.401,3.5 C15.201,3.6 15,3.3 15,3 C15,1.3 13.701,0 12,0 C10.3,0 9,1.3 9,3 L9,3.201 C9,3.4 8.901,3.6 8.701,3.701 L8.5,3.8 C8.3,3.9 8,3.8 7.701,3.6 C6.5,2.4 4.6,2.4 3.5,3.6 C2.3,4.8 2.3,6.701 3.6,7.9 C3.8,8.1 3.8,8.4 3.701,8.701 C3.6,8.9 3.3,9.1 3,9.1 C1.3,9.1 0,10.4 0,12.1 C0,13.8 1.3,15.1 3,15.1 L3.201,15.1 C3.5,15.1 3.701,15.3 3.8,15.5 C3.901,15.701 3.901,16 3.6,16.3 C3,16.9 2.701,17.6 2.701,18.4 C2.701,19.1 3,19.8 3.5,20.4 L3.6,20.5 L3.901,20.8 C5.1,21.701 6.701,21.6 7.901,20.5 C8.1,20.3 8.401,20.3 8.701,20.4 C9,20.5 9.1,20.701 9.1,21.1 C9.1,22.8 10.401,24.1 12.1,24.1 C13.8,24.1 15.1,22.8 15.1,21.1 L15.1,20.9 C15.1,20.6 15.3,20.4 15.5,20.3 C15.701,20.201 16,20.201 16.3,20.5 C17.5,21.701 19.401,21.701 20.5,20.5 C21.701,19.3 21.701,17.4 20.401,16.201 C20.3,15.9 20.201,15.6 20.3,15.4"/>
</svg>
