<svg xmlns="http://www.w3.org/2000/svg" xmlns:xlink="http://www.w3.org/1999/xlink" viewBox="0 0 24 24">
    <path id="success+20-a" d="M20.1825992,10.445793 C20.6735306,10.445793 21.0008182,10.7730806 21.0008182,11.264012 L21.0008182,12.0004091 C21.0008182,16.9915451 16.9915451,21 12.0004091,21 C7.00927315,21 3,16.9915451 3,12.0004091 C3,7.00927315 7.00927315,3 12.0004091,3 C13.3095595,3 14.536888,3.3272876 15.6823947,3.81821901 C16.0915042,3.98186281 16.255148,4.47279422 16.0915042,4.88190372 C15.9278604,5.29101323 15.436929,5.45465703 15.0278194,5.29101323 C14.0459566,4.88190372 13.0640938,4.63643802 12.0004091,4.63643802 C7.90931406,4.63643802 4.63643802,7.90931406 4.63643802,12.0004091 C4.63643802,16.0906859 7.90931406,19.363562 12.0004091,19.363562 C16.0915042,19.363562 19.3643802,16.0906859 19.3643802,12.0004091 L19.3643802,11.264012 C19.3643802,10.7730806 19.6916678,10.445793 20.1825992,10.445793 Z M21.5737352,4.06343925 C21.9002046,4.39072685 21.9002046,4.88165826 21.5737352,5.20894586 L12.5733261,14.209355 C12.4096823,14.3729988 12.1642166,14.4548207 12.0005728,14.4548207 C11.836929,14.4548207 11.5914632,14.3729988 11.4278194,14.209355 L8.97316242,11.7546979 C8.64587481,11.4274103 8.64587481,10.9364789 8.97316242,10.6091913 C9.30045002,10.2819037 9.79138143,10.2819037 10.118669,10.6091913 L12.0005728,12.491095 L20.4282286,4.06343925 C20.7555162,3.73615164 21.2464476,3.73615164 21.5737352,4.06343925 Z"/>
</svg>
