<svg xmlns="http://www.w3.org/2000/svg" xmlns:xlink="http://www.w3.org/1999/xlink" width="24" height="24" viewBox="0 0 24 24">
  <defs>
    <path id="success+circle-a" d="M21,9.1001 C21.6,9.1001 22,9.5001 22,10.1001 L22,11.0001 C22,17.1001 17.1,21.9991 11,21.9991 C4.9,21.9991 0,17.1001 0,11.0001 C0,4.9001 4.9,0.0001 11,0.0001 C12.6,0.0001 14.1,0.4001 15.5,1.0001 C16,1.2001 16.2,1.8001 16,2.3001 C15.8,2.8001 15.2,3.0001 14.7,2.8001 C13.5,2.3001 12.3,2.0001 11,2.0001 C6,2.0001 2,6.0001 2,11.0001 C2,15.9991 6,19.9991 11,19.9991 C16,19.9991 20,15.9991 20,11.0001 L20,10.1001 C20,9.5001 20.4,9.1001 21,9.1001 Z M22.7002,1.2998 C23.0992,1.6998 23.0992,2.2998 22.7002,2.6998 L11.7002,13.6998 C11.5002,13.8998 11.2002,13.9998 11.0002,13.9998 C10.8002,13.9998 10.5002,13.8998 10.3002,13.6998 L7.3002,10.6998 C6.9002,10.2998 6.9002,9.6998 7.3002,9.2998 C7.7002,8.8998 8.3002,8.8998 8.7002,9.2998 L11.0002,11.5998 L21.3002,1.2998 C21.7002,0.8998 22.3002,0.8998 22.7002,1.2998 Z"/>
  </defs>
  <g fill="none" fill-rule="evenodd" transform="translate(0 1)">
    <use fill="#000" xlink:href="#success+circle-a"/>
  </g>
</svg>
