<svg xmlns="http://www.w3.org/2000/svg" xmlns:xlink="http://www.w3.org/1999/xlink" viewBox="0 0 24 24">
    <path id="success+20-a" d="M19.5,10.41675 C20,10.41675 20.3333333,10.7500833 20.3333333,11.2500833 L20.3333333,12.0000833 C20.3333333,17.0834167 16.25,21.1659167 11.1666667,21.1659167 C6.08333333,21.1659167 2,17.0834167 2,12.0000833 C2,6.91675 6.08333333,2.83341667 11.1666667,2.83341667 C12.5,2.83341667 13.75,3.16675 14.9166667,3.66675 C15.3333333,3.83341667 15.5,4.33341667 15.3333333,4.75008333 C15.1666667,5.16675 14.6666667,5.33341667 14.25,5.16675 C13.25,4.75008333 12.25,4.50008333 11.1666667,4.50008333 C7,4.50008333 3.66666667,7.83341667 3.66666667,12.0000833 C3.66666667,16.1659167 7,19.49925 11.1666667,19.49925 C15.3333333,19.49925 18.6666667,16.1659167 18.6666667,12.0000833 L18.6666667,11.2500833 C18.6666667,10.7500833 19,10.41675 19.5,10.41675 Z M20.9168333,3.9165 C21.2493333,4.24983333 21.2493333,4.74983333 20.9168333,5.08316667 L11.7501667,14.2498333 C11.5835,14.4165 11.3335,14.4998333 11.1668333,14.4998333 C11.0001667,14.4998333 10.7501667,14.4165 10.5835,14.2498333 L8.0835,11.7498333 C7.75016667,11.4165 7.75016667,10.9165 8.0835,10.5831667 C8.41683333,10.2498333 8.91683333,10.2498333 9.25016667,10.5831667 L11.1668333,12.4998333 L19.7501667,3.9165 C20.0835,3.58316667 20.5835,3.58316667 20.9168333,3.9165 Z"/>
</svg>
