<svg xmlns="http://www.w3.org/2000/svg" xmlns:xlink="http://www.w3.org/1999/xlink" viewBox="0 0 24 24">
    <path id="sync-a" d="M20.6,12.1 C21.1,12.2 21.401,12.8 21.3,13.4 C20.8,14.8 19.901,16.1 18.901,17.1 C17,19 14.5,20 11.8,20 C9.1,20 6.6,19 4.901,17.1 L2,14.3 L2,18 C2,18.6 1.6,19 1,19 C0.401,19 0,18.6 0,18 L0,12 L0,11.9 L0,11.7 C0,11.6 0.1,11.6 0.1,11.5 C0.201,11.5 0.201,11.4 0.201,11.4 C0.201,11.3 0.3,11.2 0.401,11.2 C0.401,11.1 0.5,11.1 0.5,11.1 L0.6,11.1 C0.6,11 0.701,11 0.8,11 L6.8,11 C7.401,11 7.8,11.4 7.8,12 C7.8,12.6 7.401,13 6.8,13 L3.3,13 L6.1,15.6 C7.701,17.2 9.701,18 11.8,18 C13.901,18 16,17.2 17.401,15.7 C18.3,14.9 18.901,13.8 19.3,12.7 C19.5,12.2 20.1,11.9 20.6,12.1 Z M22.4626462,1.01696034 C23.0626462,1.01696034 23.4626462,1.41696034 23.4626462,2.01696034 L23.4626462,8.01696034 L23.4626462,8.11696034 C23.4626462,8.21696034 23.4626462,8.31696034 23.3626462,8.41696034 C23.3626462,8.51696034 23.2626462,8.51696034 23.2626462,8.61696034 C23.1626462,8.61696034 23.1626462,8.71696034 23.1626462,8.71696034 C23.0626462,8.81696034 22.9626462,8.81696034 22.8626462,8.91696034 C22.7626462,9.01696034 22.5626462,9.01696034 22.4626462,9.01696034 L16.4626462,9.01696034 C15.8626462,9.01696034 15.4626462,8.61696034 15.4626462,8.01696034 C15.4626462,7.41696034 15.8626462,7.01696034 16.4626462,7.01696034 L19.9626462,7.01696034 L17.1626462,4.31696034 C16.3626462,3.41696034 15.2626462,2.81696034 14.1626462,2.41696034 C12.1626462,1.71696034 9.96264622,1.81696034 8.06264622,2.71696034 C6.16264622,3.71696034 4.66264622,5.31696034 3.96264622,7.31696034 C3.76264622,7.81696034 3.16264622,8.11696034 2.66264622,7.91696034 C2.16264622,7.81696034 1.86264622,7.21696034 2.06264622,6.71696034 C2.96264622,4.11696034 4.76264622,2.11696034 7.16264622,1.01696034 C9.56264622,-0.183039661 12.2626462,-0.283039661 14.8626462,0.516960339 C16.2626462,1.01696034 17.5626462,1.91696034 18.5626462,2.91696034 L21.4626462,5.71696034 L21.4626462,2.01696034 C21.4626462,1.41696034 21.8626462,1.01696034 22.4626462,1.01696034 Z"/>
</svg>
