<svg xmlns="http://www.w3.org/2000/svg" xmlns:xlink="http://www.w3.org/1999/xlink" viewBox="0 0 24 24">
    <path id="trash-a" d="M16,19 C16,19.6 15.6,20 15,20 L5,20 C4.4,20 4,19.6 4,19 L4,6 L16,6 L16,19 Z M7,3 C7,2.4 7.4,2 8,2 L12,2 C12.6,2 13,2.4 13,3 L13,4 L7,4 L7,3 Z M19,4 L15,4 L15,3 C15,1.3 13.7,0 12,0 L8,0 C6.3,0 5,1.3 5,3 L5,4 L1,4 C0.4,4 0,4.4 0,5 C0,5.6 0.4,6 1,6 L2,6 L2,19 C2,20.7 3.3,22 5,22 L15,22 C16.7,22 18,20.7 18,19 L18,6 L19,6 C19.6,6 20,5.6 20,5 C20,4.4 19.6,4 19,4 Z M8,17.0001 C8.6,17.0001 9,16.6001 9,16.0001 L9,10.0001 C9,9.4001 8.6,9.0001 8,9.0001 C7.4,9.0001 7,9.4001 7,10.0001 L7,16.0001 C7,16.6001 7.4,17.0001 8,17.0001 M12,17.0001 C12.6,17.0001 13,16.6001 13,16.0001 L13,10.0001 C13,9.4001 12.6,9.0001 12,9.0001 C11.4,9.0001 11,9.4001 11,10.0001 L11,16.0001 C11,16.6001 11.4,17.0001 12,17.0001"/>
</svg>
