<svg xmlns="http://www.w3.org/2000/svg" xmlns:xlink="http://www.w3.org/1999/xlink" viewBox="0 0 24 24">
    <path id="undo-a" d="M21.4,6.69868189 C20.5,4.19868189 18.7,2.19868189 16.299,0.998681894 C13.9,-0.201318106 11.2,-0.301318106 8.7,0.598681894 C7.299,1.09868189 6,1.89868189 5,2.89868189 L2,5.69868189 L2,1.99868189 C2,1.39868189 1.599,0.998681894 1,0.998681894 C0.4,0.998681894 0,1.39868189 0,1.99868189 L0,7.99868189 L0,8.09868189 L0,8.29868189 C0,8.39868189 0.099,8.39868189 0.099,8.49868189 C0.099,8.49868189 0.099,8.59868189 0.2,8.59868189 C0.299,8.69868189 0.299,8.69868189 0.4,8.69868189 L0.5,8.79868189 L0.599,8.79868189 L0.799,8.79868189 L6.799,8.79868189 C7.4,8.79868189 7.799,8.39868189 7.799,7.79868189 C7.799,7.19868189 7.599,6.99868189 7,6.99868189 L3.5,6.99868189 L6.299,4.29868189 C7.099,3.49868189 8.2,2.79868189 9.299,2.39868189 C11.299,1.69868189 13.5,1.79868189 15.4,2.69868189 C17.299,3.59868189 18.799,5.19868189 19.5,7.29868189 C20.2,9.29868189 20.099,11.4986819 19.2,13.3986819 C18.299,15.2986819 16.7,16.7986819 14.599,17.4986819 C10.4,18.9986819 5.9,16.7986819 4.4,12.5986819 C4.2,12.0986819 3.599,11.7986819 3.099,11.9986819 C2.599,12.1986819 2.299,12.7986819 2.5,13.2986819 C4,17.3986819 7.9,19.9986819 12,19.9986819 C13.099,19.9986819 14.2,19.7986819 15.299,19.3986819 C20.5,17.5986819 23.299,11.8986819 21.4,6.69868189"/>
</svg>
