<svg xmlns="http://www.w3.org/2000/svg" xmlns:xlink="http://www.w3.org/1999/xlink" viewBox="0 0 24 24">
    <path id="unlocked-a" d="M18,18.9999 C18,19.5999 17.6,19.9999 17,19.9999 L3,19.9999 C2.4,19.9999 2,19.5999 2,18.9999 L2,11.9999 C2,11.3999 2.4,10.9999 3,10.9999 L17,10.9999 C17.6,10.9999 18,11.3999 18,11.9999 L18,18.9999 Z M17,8.9999 L6,8.9999 L6,5.9999 C6,4.8999 6.4,3.8999 7.2,3.1999 C7.9,2.3999 8.9,1.9999 10,1.9999 C11.9,1.9999 13.5,3.2999 13.9,5.1999 C14,5.6999 14.6,6.0999 15.1,5.9999 C15.6,5.8999 16,5.3999 15.9,4.7999 C15.3,1.9999 12.8,-0.0001 10,-0.0001 C8.4,-0.0001 6.9,0.5999 5.8,1.7999 C4.6,2.8999 4,4.3999 4,5.9999 L4,8.9999 L3,8.9999 C1.3,8.9999 0,10.2999 0,11.9999 L0,18.9999 C0,20.6999 1.3,21.9999 3,21.9999 L17,21.9999 C18.7,21.9999 20,20.6999 20,18.9999 L20,11.9999 C20,10.2999 18.7,8.9999 17,8.9999 Z"/>
</svg>
