<svg xmlns="http://www.w3.org/2000/svg" xmlns:xlink="http://www.w3.org/1999/xlink" viewBox="0 0 24 24">
    <path id="upload-a" d="M19,15 C19.6,15 20,15.4 20,16 L20,19 C20,20.7 18.7,22 17,22 L3,22 C1.3,22 0,20.7 0,19 L0,16 C0,15.4 0.4,15 1,15 C1.6,15 2,15.4 2,16 L2,19 C2,19.6 2.4,20 3,20 L17,20 C17.6,20 18,19.6 18,19 L18,16 C18,15.4 18.4,15 19,15 Z M6.7,5.67525 C6.3,6.07425 5.7,6.07425 5.3,5.67525 C4.9,5.27525 4.9,4.67525 5.3,4.27525 L9.3,0.27525 C9.4,0.17525 9.5,0.17525 9.599,0.07425 C9.9,-0.02475 10.2,-0.02475 10.4,0.07425 C10.5,0.07425 10.599,0.17525 10.7,0.27525 L14.7,4.27525 C15.099,4.67525 15.099,5.27525 14.7,5.67525 C14.5,5.87525 14.3,5.97525 14,5.97525 C13.7,5.97525 13.5,5.87525 13.3,5.67525 L11,3.37525 L11,14.97525 C11,15.57425 10.599,15.97525 10,15.97525 C9.4,15.97525 9,15.57425 9,14.97525 L9,3.37525 L6.7,5.67525 Z"/>
</svg>
