<svg xmlns="http://www.w3.org/2000/svg" xmlns:xlink="http://www.w3.org/1999/xlink" viewBox="0 0 24 24">
    <path id="success-copy-a" d="M16.753,7.659 L9.753,15.659 C9.57,15.867 9.31,15.991 9.033,16 C9.023,16 9.011,16 9,16 C8.735,16 8.481,15.895 8.293,15.707 L4.293,11.707 C3.902,11.317 3.902,10.684 4.293,10.293 C4.684,9.903 5.316,9.903 5.707,10.293 L8.951,13.537 L15.247,6.342 C15.611,5.925 16.244,5.884 16.658,6.248 C17.074,6.612 17.116,7.243 16.753,7.659 M11,0 C4.9,0 0,4.9 0,11 C0,17.1 4.9,22 11,22 C17.1,22 22,17.1 22,11 C22,4.9 17.1,0 11,0"/>
</svg>
