<svg xmlns="http://www.w3.org/2000/svg" xmlns:xlink="http://www.w3.org/1999/xlink" viewBox="0 0 24 24">
    <path id="success-a" d="M11,20 C6,20 2,16 2,11 C2,6 6,2 11,2 C16,2 20,6 20,11 C20,16 16,20 11,20 M11,0 C4.9,0 0,4.9 0,11 C0,17.1 4.9,22 11,22 C17.1,22 22,17.1 22,11 C22,4.9 17.1,0 11,0 M15.2471,6.3413 L8.9511,13.5373 L5.7071,10.2933 C5.3161,9.9023 4.6841,9.9023 4.2931,10.2933 C3.9021,10.6833 3.9021,11.3163 4.2931,11.7073 L8.2931,15.7073 C8.4801,15.8953 8.7351,16.0003 9.0001,16.0003 C9.0111,16.0003 9.0221,16.0003 9.0331,15.9993 C9.3101,15.9903 9.5701,15.8663 9.7531,15.6583 L16.7531,7.6583 C17.1161,7.2423 17.0741,6.6113 16.6581,6.2473 C16.2441,5.8833 15.6111,5.9243 15.2471,6.3413"/>
</svg>
