<svg xmlns="http://www.w3.org/2000/svg" xmlns:xlink="http://www.w3.org/1999/xlink" viewBox="0 0 24 24">
    <path id="x_o_20-a" d="M9.16666667,16.6666667 C5,16.6666667 1.66666667,13.3333333 1.66666667,9.16666667 C1.66666667,5 5,1.66666667 9.16666667,1.66666667 C13.3333333,1.66666667 16.6666667,5 16.6666667,9.16666667 C16.6666667,13.3333333 13.3333333,16.6666667 9.16666667,16.6666667 M9.16666667,0 C4.08333333,0 0,4.08333333 0,9.16666667 C0,14.25 4.08333333,18.3333333 9.16666667,18.3333333 C14.25,18.3333333 18.3333333,14.25 18.3333333,9.16666667 C18.3333333,4.08333333 14.25,0 9.16666667,0 M12.25,6.08270833 C11.9166667,5.75020833 11.4166667,5.75020833 11.0833333,6.08270833 L9.16666667,7.999375 L7.25,6.08270833 C6.91666667,5.75020833 6.41666667,5.75020833 6.08333333,6.08270833 C5.75,6.41604167 5.75,6.91604167 6.08333333,7.249375 L7.99916667,9.16604167 L6.08333333,11.0827083 C5.75,11.4160417 5.75,11.9160417 6.08333333,12.249375 C6.25,12.416875 6.41666667,12.499375 6.66666667,12.499375 C6.91666667,12.499375 7.08333333,12.416875 7.25,12.249375 L9.16666667,10.3335417 L11.0833333,12.249375 C11.25,12.416875 11.5,12.499375 11.6666667,12.499375 C11.8333333,12.499375 12.0833333,12.416875 12.25,12.249375 C12.5825,11.9160417 12.5825,11.4160417 12.25,11.0827083 L10.3333333,9.16604167 L12.25,7.249375 C12.5825,6.91604167 12.5825,6.41604167 12.25,6.08270833"/>
</svg>
