<svg xmlns="http://www.w3.org/2000/svg" xmlns:xlink="http://www.w3.org/1999/xlink" viewBox="0 0 24 24">
    <path id="x_o_20-a" d="M9,16.3636364 C4.90909091,16.3636364 1.63636364,13.0909091 1.63636364,9 C1.63636364,4.90909091 4.90909091,1.63636364 9,1.63636364 C13.0909091,1.63636364 16.3636364,4.90909091 16.3636364,9 C16.3636364,13.0909091 13.0909091,16.3636364 9,16.3636364 M9,0 C4.00909091,0 0,4.00909091 0,9 C0,13.9909091 4.00909091,18 9,18 C13.9909091,18 18,13.9909091 18,9 C18,4.00909091 13.9909091,0 9,0 M12.0272727,5.97211364 C11.7,5.64565909 11.2090909,5.64565909 10.8818182,5.97211364 L9,7.85393182 L7.11818182,5.97211364 C6.79090909,5.64565909 6.3,5.64565909 5.97272727,5.97211364 C5.64545455,6.29938636 5.64545455,6.79029545 5.97272727,7.11756818 L7.85372727,8.99938636 L5.97272727,10.8812045 C5.64545455,11.2084773 5.64545455,11.6993864 5.97272727,12.0266591 C6.13636364,12.1911136 6.3,12.2721136 6.54545455,12.2721136 C6.79090909,12.2721136 6.95454545,12.1911136 7.11818182,12.0266591 L9,10.1456591 L10.8818182,12.0266591 C11.0454545,12.1911136 11.2909091,12.2721136 11.4545455,12.2721136 C11.6181818,12.2721136 11.8636364,12.1911136 12.0272727,12.0266591 C12.3537273,11.6993864 12.3537273,11.2084773 12.0272727,10.8812045 L10.1454545,8.99938636 L12.0272727,7.11756818 C12.3537273,6.79029545 12.3537273,6.29938636 12.0272727,5.97211364"/>
</svg>
