<svg xmlns="http://www.w3.org/2000/svg" xmlns:xlink="http://www.w3.org/1999/xlink" width="24" height="24" viewBox="0 0 24 24">
  <g fill-rule="evenodd" transform="translate(1 1)">
    <path id="x-copy-a" d="M11,0 C4.9,0 0,4.9 0,11 C0,17.1 4.9,22 11,22 C17.1,22 22,17.1 22,11 C22,4.9 17.1,0 11,0 M14.2591,7.29935 C13.8591,6.90035 13.2591,6.90035 12.8591,7.29935 L10.5591,9.59935 L8.2591,7.29935 C7.8591,6.90035 7.2591,6.90035 6.8591,7.29935 C6.4591,7.69935 6.4591,8.29935 6.8591,8.69935 L9.1581,10.99935 L6.8591,13.29935 C6.4591,13.69935 6.4591,14.29935 6.8591,14.69935 C7.0591,14.90035 7.2591,14.99935 7.5591,14.99935 C7.8591,14.99935 8.0591,14.90035 8.2591,14.69935 L10.5591,12.40035 L12.8591,14.69935 C13.0591,14.90035 13.3591,14.99935 13.5591,14.99935 C13.7591,14.99935 14.0591,14.90035 14.2591,14.69935 C14.6581,14.29935 14.6581,13.69935 14.2591,13.29935 L11.9591,10.99935 L14.2591,8.69935 C14.6581,8.29935 14.6581,7.69935 14.2591,7.29935"/>
  </g>
</svg>
