<svg xmlns="http://www.w3.org/2000/svg" width="14" height="14" viewBox="0 0 14 14">
  <path fill-rule="evenodd" d="M2,0 L12,-2.22044605e-16 C13.1045695,5.56104062e-16 14,0.8954305 14,2 L14,12 C14,13.1045695 13.1045695,14 12,14 L2,14 C0.8954305,14 8.94280938e-16,13.1045695 -2.22044605e-16,12 L-2.22044605e-16,2 C-3.57315355e-16,0.8954305 0.8954305,-1.91384796e-17 2,-2.22044605e-16 Z M3.85355339,7.54977605 C3.65829124,7.35451391 3.34170876,7.35451391 3.14644661,7.54977605 C2.95118446,7.7450382 2.95118446,8.06162069 3.14644661,8.25688283 L5.71469032,10.8251265 C5.93114093,11.0415771 6.28952386,11.0144698 6.47095446,10.7679244 L10.8653572,4.79638422 C11.0290275,4.57397322 10.9814087,4.26099251 10.7589977,4.09732224 C10.5365867,3.93365198 10.223606,3.98127076 10.0599357,4.20368177 L6.01038326,9.70660592 L3.85355339,7.54977605 Z"/>
</svg>
