<svg xmlns="http://www.w3.org/2000/svg" xmlns:xlink="http://www.w3.org/1999/xlink" width="14" height="14" viewBox="0 0 14 14">
  
    <path id="disabled-a" d="M2,0 L12,-2.22044605e-16 C13.1045695,5.56104062e-16 14,0.8954305 14,2 L14,12 C14,13.1045695 13.1045695,14 12,14 L2,14 C0.8954305,14 8.94280938e-16,13.1045695 -2.22044605e-16,12 L-2.22044605e-16,2 C-3.57315355e-16,0.8954305 0.8954305,-1.91384796e-17 2,-2.22044605e-16 Z"/>
  
  <g fill-rule="evenodd">
    <use fill="#FFF" xlink:href="#disabled-a"/>
    <path stroke="#000" d="M2,0.5 C1.17157288,0.5 0.5,1.17157288 0.5,2 L0.5,12 C0.5,12.8284271 1.17157288,13.5 2,13.5 L12,13.5 C12.8284271,13.5 13.5,12.8284271 13.5,12 L13.5,2 C13.5,1.17157288 12.8284271,0.5 12,0.5 L2,0.5 Z"/>
  
</svg>
