<svg xmlns="http://www.w3.org/2000/svg" width="14" height="14" viewBox="0 0 14 14">
  <g fill-rule="evenodd">
    <path d="M7,14 C3.13400675,14 0,10.8659932 0,7 C0,3.13400675 3.13400675,0 7,0 C8.35813029,0 9.62592397,0.386776975 10.699241,1.0561909 C12.6811805,2.29230086 14,4.49213704 14,7 C14,10.8659932 10.8659932,14 7,14 Z"/>
    <path fill="#FFF" d="M7,13 C10.3137085,13 13,10.3137085 13,7 C13,3.6862915 10.3137085,1 7,1 C3.6862915,1 1,3.6862915 1,7 C1,10.3137085 3.6862915,13 7,13 Z"/>
  
</svg>
