<svg xmlns="http://www.w3.org/2000/svg" viewBox="0 0 20 20">
  <g>
    <path d="M5,8H19a1,1,0,0,0,0-2H5A1,1,0,0,0,5,8Z" transform="translate(-2 -2)"/>
    <path d="M7,4H17a1,1,0,0,0,0-2H7A1,1,0,0,0,7,4Z" transform="translate(-2 -2)"/>
    <path d="M16,14a1,1,0,0,0-1,1H9a1,1,0,0,0-2,0v.68a1,1,0,0,0,0,.16A1,1,0,0,0,8,17h8a1,1,0,0,0,1-1.16,1,1,0,0,0,0-.16V15A1,1,0,0,0,16,14Z" transform="translate(-2 -2)"/>
    <path d="M21,10H3a1,1,0,0,0-1,1V21a1,1,0,0,0,1,1H21a1,1,0,0,0,1-1V11A1,1,0,0,0,21,10Zm-.92,9a1,1,0,0,1-1,1H5a1,1,0,0,1-1-1V13a1,1,0,0,1,1-1H19.08a1,1,0,0,1,1,1Z" transform="translate(-2 -2)"/>
  </g>
</svg>
