<svg xmlns="http://www.w3.org/2000/svg" viewBox="0 0 19.95 19.24"><title>base.volume</title><g id="Layer_2" data-name="Layer 2"><g id="Layer_1-2" data-name="Layer 1"><path d="M10,1c5,0,8.5,2.11,8.5,4S15,9,10,9s-8.5-2.11-8.5-4S5,1,10,1m0-1C4.73,0,.47,2.24.47,5s4.25,5,9.5,5,9.5-2.24,9.5-5S15.22,0,10,0Z"/><path d="M10,13.24C4.38,13.24,0,10.94,0,8A.5.5,0,0,1,1,8c0,2.3,4.11,4.24,9,4.24s9-1.94,9-4.24a.5.5,0,0,1,1,0C19.95,10.94,15.57,13.24,10,13.24Z"/><path d="M10,16.24c-5.59,0-10-2.3-10-5.24a.5.5,0,0,1,1,0c0,2.3,4.11,4.24,9,4.24s9-1.94,9-4.24a.5.5,0,0,1,1,0C19.95,13.94,15.57,16.24,10,16.24Z"/><path d="M10,19.24c-5.59,0-10-2.3-10-5.24a.5.5,0,0,1,1,0c0,2.3,4.11,4.24,9,4.24s9-1.94,9-4.24a.5.5,0,0,1,1,0C19.95,16.94,15.57,19.24,10,19.24Z"/></g></g></svg>