<svg xmlns="http://www.w3.org/2000/svg" viewBox="0 0 16 16"><title>Asset 1</title><g id="Layer_2" data-name="Layer 2"><g id="Layer_1-2" data-name="Layer 1"><polygon points="0 6 1 6 1 1.71 5.15 5.85 5.85 5.15 1.71 1 6 1 6 0 0 0 0 6"/><polygon points="10 0 10 1 14.29 1 10.15 5.15 10.85 5.85 15 1.71 15 6 16 6 16 0 10 0"/><polygon points="15 14.29 10.85 10.15 10.15 10.85 14.29 15 10 15 10 16 16 16 16 10 15 10 15 14.29"/><polygon points="5.85 10.85 5.15 10.15 1 14.29 1 10 0 10 0 16 6 16 6 15 1.71 15 5.85 10.85"/></g></g></svg>