<svg xmlns="http://www.w3.org/2000/svg" xmlns:xlink="http://www.w3.org/1999/xlink" viewBox="0 0 24 24">
    <path id="info-a" d="M11,20 C6,20 2,16 2,11 C2,6 6,2 11,2 C16,2 20,6 20,11 C20,16 16,20 11,20 M11,0 C4.9,0 0,4.9 0,11 C0,17.101 4.9,22 11,22 C17.1,22 22,17.101 22,11 C22,4.9 17.1,0 11,0 M11,10 C10.4,10 10,10.4 10,11 L10,15 C10,15.601 10.4,16 11,16 C11.6,16 12,15.601 12,15 L12,11 C12,10.4 11.6,10 11,10 M10.2998,6.2998 C10.0998,6.4998 9.9998,6.6998 9.9998,6.9998 C9.9998,7.2998 10.0998,7.4998 10.2998,7.6998 C10.4998,7.9008 10.6998,7.9998 10.9998,7.9998 C11.2998,7.9998 11.4998,7.9008 11.6998,7.6998 C11.9008,7.4998 11.9998,7.2998 11.9998,6.9998 C11.9998,6.6998 11.9008,6.4998 11.6998,6.2998 C11.2998,5.9008 10.6998,5.9008 10.2998,6.2998"/>
</svg>
