<svg xmlns="http://www.w3.org/2000/svg" viewBox="0 0 13 13"><title>network</title><g id="Layer_2" data-name="Layer 2"><g id="Layer_1-2" data-name="Layer 1"><path d="M10.5,8a2.48,2.48,0,0,0-1.38.42l-.54-.54a2.48,2.48,0,0,0,0-2.75l.54-.54a2.51,2.51,0,1,0-.71-.71l-.54.54a2.48,2.48,0,0,0-2.75,0l-.54-.54a2.51,2.51,0,1,0-.71.71l.54.54a2.48,2.48,0,0,0,0,2.75l-.54.54a2.51,2.51,0,1,0,.71.71l.54-.54a2.48,2.48,0,0,0,2.75,0l.54.54A2.5,2.5,0,1,0,10.5,8Zm0-7A1.5,1.5,0,1,1,9,2.5,1.5,1.5,0,0,1,10.5,1Zm-8,3A1.5,1.5,0,1,1,4,2.5,1.5,1.5,0,0,1,2.5,4Zm0,8A1.5,1.5,0,1,1,4,10.5,1.5,1.5,0,0,1,2.5,12Zm4-4A1.5,1.5,0,1,1,8,6.5,1.5,1.5,0,0,1,6.5,8Zm4,4A1.5,1.5,0,1,1,12,10.5,1.5,1.5,0,0,1,10.5,12Z"/></g></g></svg>