<svg xmlns="http://www.w3.org/2000/svg" viewBox="0 0 17.98 21.94" id="notification_full_bell_icon">
    <defs>
        <style></style>
    </defs>
    <title>notification_full</title>
    <g id="Layer_2" data-name="Layer 2">
        <g id="Layer_2-2" data-name="Layer 2">
            <path class="cls-1" d="M17.67,16.61c-1.75-2.29-1.75-4.06-1.75-6.74a7,7,0,0,0-2.24-5.1,6.88,6.88,0,0,0-3.06-1.64,2,2,0,1,0-3.28,0,7.19,7.19,0,0,0-5.29,7c0,2.59-.09,4.29-1.76,6.47a1.45,1.45,0,0,0-.15,1.53,1.43,1.43,0,0,0,1.29.8H5.53a3.48,3.48,0,0,0,6.9,0h4.1a1.43,1.43,0,0,0,1.29-.8A1.46,1.46,0,0,0,17.67,16.61ZM4.8,10.06A4.2,4.2,0,0,1,8.55,5.83a.51.51,0,0,1,.54.46.5.5,0,0,1-.46.54A3.2,3.2,0,0,0,5.8,10.06a.5.5,0,0,1-1,0Z"/>
        </g>
    </g>
</svg>
