<?xml version="1.0" encoding="utf-8"?>
<!-- Generator: Adobe Illustrator 21.1.0, SVG Export Plug-In . SVG Version: 6.00 Build 0)  -->
<svg version="1.1" id="notification_bell_icon" xmlns="http://www.w3.org/2000/svg" xmlns:xlink="http://www.w3.org/1999/xlink" x="0px" y="0px"
	 viewBox="0 0 18 21.9" style="enable-background:new 0 0 18 21.9;" xml:space="preserve">
<title>notification_icon</title>
<g>
	<path d="M17.7,16.6c-1.8-2.3-1.8-4-1.8-6.7c0-0.2,0-0.4,0-0.6c-0.2-1.8-1-3.5-2.5-4.7c-0.8-0.7-1.8-1.2-2.8-1.4
		C10.8,2.8,11,2.4,11,2c0-1.1-0.9-2-2-2S7,0.9,7,2c0,0.4,0.1,0.8,0.4,1.2C4.2,4,2,6.8,2.1,10.1c0,2.6-0.1,4.3-1.8,6.5l0,0.1
		c-0.1,0.2-0.2,0.3-0.2,0.5C0,18,0.6,18.8,1.4,18.9l4.1,0c0.2,1.7,1.7,3,3.5,3c1.8,0,3.2-1.3,3.5-3l4.2,0c0.2,0,0.5-0.1,0.6-0.2
		C18,18.2,18.2,17.3,17.7,16.6z M9,1c0.6,0,1,0.4,1,1c0,0.5-0.3,0.8-0.7,0.9c-0.2,0-0.3,0-0.5,0C8.3,2.8,8,2.5,8,2C8,1.4,8.4,1,9,1z
		 M9,20.9c-1.2,0-2.2-0.9-2.5-2l4.9,0C11.2,20.1,10.2,20.9,9,20.9z M16.7,17.8c-0.1,0-0.1,0.1-0.2,0.1l-15.1,0
		c-0.3,0-0.5-0.3-0.4-0.6c0-0.1,0-0.1,0-0.2c1.9-2.5,1.9-4.6,1.9-7C3,7,5.4,4.3,8.5,4c0,0,0,0,0.1,0C8.7,4,8.8,4,9,4
		c0.1,0,0.3,0,0.4,0c1.3,0.1,2.4,0.5,3.4,1.4c1.2,1,2,2.4,2.1,4c0,0.2,0,0.4,0,0.5c0,2.7,0,4.8,1.9,7.3C17,17.4,17,17.7,16.7,17.8z"
		/>
	<path d="M8.5,5.8c-2.2,0.2-3.8,2.1-3.7,4.2c0,0.3,0.2,0.5,0.5,0.5c0,0,0,0,0,0c0.3,0,0.5-0.2,0.5-0.5c0-1.7,1.2-3,2.8-3.2
		c0.3,0,0.5-0.3,0.4-0.6C9.1,6,8.8,5.8,8.5,5.8z"/>
</g>
</svg>
