<svg xmlns="http://www.w3.org/2000/svg" viewBox="0 0 24.04 20"><title>proceed_to_overview</title><g id="Layer_2" data-name="Layer 2"><g id="Layer_1-2" data-name="Layer 1"><polygon points="16.83 20 0 20 0 0 20 0 20 10 19 10 19 1 1 1 1 19 16.83 19 16.83 20"/><rect x="3" y="10" width="14" height="1"/><rect x="3" y="13" width="14" height="1"/><path d="M17,8H3V3H17ZM4,7H16V4H4Z"/><polygon points="20.85 13.32 20.15 14.03 22.12 16 13 16 13 17 22.12 17 20.15 18.98 20.85 19.68 24.04 16.5 20.85 13.32"/></g></g></svg>