<svg id='question-mark_icon' xmlns="http://www.w3.org/2000/svg" viewBox="0 0 16 16"><g id="Layer_2" data-name="Layer 2"><g id="Layer_1-2" data-name="Layer 1"><path d="M8,0a8,8,0,1,0,8,8A7.9,7.9,0,0,0,8,0ZM8,13.1A1.1,1.1,0,1,1,9.1,12,1,1,0,0,1,8,13.1Zm2.3-6.6-.4.4L9.8,7l-.2.2c-.1.1-.3.2-.3.3l-.2.3a1.45,1.45,0,0,0-.2.7v.7H7.3V8.3a2.2,2.2,0,0,1,.1-.8A2,2,0,0,1,8,6.8l.9-.9a.62.62,0,0,0,.2-.7.91.91,0,0,0-.3-.7,1,1,0,0,0-1.4,0,.91.91,0,0,0-.3.7v.1H5.4V5.2a2.43,2.43,0,0,1,.9-1.8,3,3,0,0,1,1.9-.7h.1a2.79,2.79,0,0,1,1.8.6,2,2,0,0,1,.7,1.8A2,2,0,0,1,10.3,6.5Z"/></g></g></svg>