<svg xmlns="http://www.w3.org/2000/svg" id="version-controller-sync_icon" viewBox="0 0 27.11 20"><g id="Layer_2" data-name="Layer 2"><g id="Layer_1-2" data-name="Layer 1"><path d="M13.72,19a9,9,0,0,1-9-9,8.9,8.9,0,0,1,.61-3.23L8.4,9.93l.71-.71L4.55,4.67,0,9.22l.71.71L4.55,6.08h0a9.82,9.82,0,0,0-.84,4A10,10,0,0,0,17.86,19.1l-.72-.72A9,9,0,0,1,13.72,19Z"/><path d="M26.41,10.07l-3.85,3.85h0a9.82,9.82,0,0,0,.84-4A10,10,0,0,0,9.25.9l.72.72A9,9,0,0,1,22.44,10a8.9,8.9,0,0,1-.61,3.23l-3.12-3.12-.71.71,4.55,4.55,4.55-4.55Z"/></g></g></svg>