<svg xmlns="http://www.w3.org/2000/svg" id="version-controller-permissions_icon" viewBox="0 0 31.11 20"><title>Asset 2</title><g id="Layer_2" data-name="Layer 2"><g id="Layer_1-2" data-name="Layer 1"><path d="M24.48,11.67a6,6,0,1,0-3.84,0,8.57,8.57,0,0,0-5.08,3.43,8.57,8.57,0,0,0-5.08-3.43A6,6,0,1,0,2.59,6a6,6,0,0,0,4,5.67A8.56,8.56,0,0,0,0,20H1a7.55,7.55,0,0,1,15.11,0h1a8.49,8.49,0,0,0-1-4,7.55,7.55,0,0,1,14,4h1A8.56,8.56,0,0,0,24.48,11.67ZM3.59,6a5,5,0,1,1,5,5A5,5,0,0,1,3.59,6Zm14,0a5,5,0,1,1,5,5A5,5,0,0,1,17.59,6Z"/></g></g></svg>