<svg xmlns="http://www.w3.org/2000/svg" viewBox="0 0 20.37 20.39">  
  <title>viewModule</title>
  <g>
    <path class="a" d="M26.95,19.49H21.06a1.57,1.57,0,0,0-1.57,1.57V27a1.57,1.57,0,0,0,1.57,1.57h5.89A1.57,1.57,0,0,0,28.52,27V21.06A1.57,1.57,0,0,0,26.95,19.49ZM27.52,27a.57.57,0,0,1-.57.57H21.06a.57.57,0,0,1-.57-.57V21.06a.57.57,0,0,1,.57-.57h5.89a.57.57,0,0,1,.57.57Z" transform="translate(-8.15 -8.14)"/>
    <path class="a" d="M26.95,8.14H21.06a1.57,1.57,0,0,0-1.57,1.57V15.6a1.57,1.57,0,0,0,1.57,1.57h5.89a1.57,1.57,0,0,0,1.57-1.57V9.71A1.57,1.57,0,0,0,26.95,8.14Zm.57,7.46a.57.57,0,0,1-.57.57H21.06a.57.57,0,0,1-.57-.57V9.71a.57.57,0,0,1,.57-.57h5.89a.57.57,0,0,1,.57.57Z" transform="translate(-8.15 -8.14)"/>
    <path class="a" d="M15.61,19.49H9.72a1.57,1.57,0,0,0-1.57,1.57V27a1.57,1.57,0,0,0,1.57,1.57h5.89A1.57,1.57,0,0,0,17.18,27V21.06A1.57,1.57,0,0,0,15.61,19.49ZM16.18,27a.57.57,0,0,1-.57.57H9.72A.57.57,0,0,1,9.15,27V21.06a.57.57,0,0,1,.57-.57h5.89a.57.57,0,0,1,.57.57Z" transform="translate(-8.15 -8.14)"/>
    <path class="a" d="M15.61,8.14H9.72A1.57,1.57,0,0,0,8.15,9.71V15.6a1.57,1.57,0,0,0,1.57,1.57h5.89a1.57,1.57,0,0,0,1.57-1.57V9.71A1.57,1.57,0,0,0,15.61,8.14Zm.57,7.46a.57.57,0,0,1-.57.57H9.72a.57.57,0,0,1-.57-.57V9.71a.57.57,0,0,1,.57-.57h5.89a.57.57,0,0,1,.57.57Z" transform="translate(-8.15 -8.14)"/>
  </g>
</svg>
