<svg xmlns="http://www.w3.org/2000/svg" viewBox="0 0 29 23"><title>zip</title><g id="Layer_2" data-name="Layer 2"><g id="Layer_1-2" data-name="Layer 1"><path d="M9.47,1l2.83,2.72L12.6,4H28V22H1V1H9.47m.4-1H0V23H29V3H13L9.88,0Z"/><path d="M11.65,16.61H6.25V15.9l4.17-6.32h-4V8.76h5.15v.71L7.37,15.78h4.29Z"/><path d="M14,16.61V8.76h.91v7.85Z"/><path d="M22.87,11a2.2,2.2,0,0,1-.81,1.83,3.68,3.68,0,0,1-2.33.64H18.8v3.09h-.91V8.76h2Q22.87,8.76,22.87,11ZM18.8,12.74h.82a3,3,0,0,0,1.76-.39,1.44,1.44,0,0,0,.54-1.26,1.36,1.36,0,0,0-.51-1.16,2.66,2.66,0,0,0-1.59-.38h-1Z"/></g></g></svg>